G04 #@! TF.GenerationSoftware,KiCad,Pcbnew,8.0.9-8.0.9-0~ubuntu22.04.1*
G04 #@! TF.CreationDate,2025-09-14T16:49:04-04:00*
G04 #@! TF.ProjectId,TapeMate64,54617065-4d61-4746-9536-342e6b696361,rev?*
G04 #@! TF.SameCoordinates,Original*
G04 #@! TF.FileFunction,Soldermask,Bot*
G04 #@! TF.FilePolarity,Negative*
%FSLAX46Y46*%
G04 Gerber Fmt 4.6, Leading zero omitted, Abs format (unit mm)*
G04 Created by KiCad (PCBNEW 8.0.9-8.0.9-0~ubuntu22.04.1) date 2025-09-14 16:49:04*
%MOMM*%
%LPD*%
G01*
G04 APERTURE LIST*
G04 Aperture macros list*
%AMRoundRect*
0 Rectangle with rounded corners*
0 $1 Rounding radius*
0 $2 $3 $4 $5 $6 $7 $8 $9 X,Y pos of 4 corners*
0 Add a 4 corners polygon primitive as box body*
4,1,4,$2,$3,$4,$5,$6,$7,$8,$9,$2,$3,0*
0 Add four circle primitives for the rounded corners*
1,1,$1+$1,$2,$3*
1,1,$1+$1,$4,$5*
1,1,$1+$1,$6,$7*
1,1,$1+$1,$8,$9*
0 Add four rect primitives between the rounded corners*
20,1,$1+$1,$2,$3,$4,$5,0*
20,1,$1+$1,$4,$5,$6,$7,0*
20,1,$1+$1,$6,$7,$8,$9,0*
20,1,$1+$1,$8,$9,$2,$3,0*%
%AMOutline5P*
0 Free polygon, 5 corners , with rotation*
0 The origin of the aperture is its center*
0 number of corners: always 5*
0 $1 to $10 corner X, Y*
0 $11 Rotation angle, in degrees counterclockwise*
0 create outline with 5 corners*
4,1,5,$1,$2,$3,$4,$5,$6,$7,$8,$9,$10,$1,$2,$11*%
%AMOutline6P*
0 Free polygon, 6 corners , with rotation*
0 The origin of the aperture is its center*
0 number of corners: always 6*
0 $1 to $12 corner X, Y*
0 $13 Rotation angle, in degrees counterclockwise*
0 create outline with 6 corners*
4,1,6,$1,$2,$3,$4,$5,$6,$7,$8,$9,$10,$11,$12,$1,$2,$13*%
%AMOutline7P*
0 Free polygon, 7 corners , with rotation*
0 The origin of the aperture is its center*
0 number of corners: always 7*
0 $1 to $14 corner X, Y*
0 $15 Rotation angle, in degrees counterclockwise*
0 create outline with 7 corners*
4,1,7,$1,$2,$3,$4,$5,$6,$7,$8,$9,$10,$11,$12,$13,$14,$1,$2,$15*%
%AMOutline8P*
0 Free polygon, 8 corners , with rotation*
0 The origin of the aperture is its center*
0 number of corners: always 8*
0 $1 to $16 corner X, Y*
0 $17 Rotation angle, in degrees counterclockwise*
0 create outline with 8 corners*
4,1,8,$1,$2,$3,$4,$5,$6,$7,$8,$9,$10,$11,$12,$13,$14,$15,$16,$1,$2,$17*%
G04 Aperture macros list end*
%ADD10C,0.100000*%
%ADD11R,1.600000X1.600000*%
%ADD12O,1.600000X1.600000*%
%ADD13R,2.000000X1.905000*%
%ADD14O,2.000000X1.905000*%
%ADD15C,2.200000*%
%ADD16C,1.400000*%
%ADD17R,2.400000X2.400000*%
%ADD18O,2.400000X2.400000*%
%ADD19O,1.400000X1.400000*%
%ADD20RoundRect,0.101600X0.850000X0.850000X-0.850000X0.850000X-0.850000X-0.850000X0.850000X-0.850000X0*%
%ADD21C,1.903200*%
%ADD22C,1.700000*%
%ADD23R,2.410000X10.000000*%
%ADD24Outline5P,-1.205000X5.000000X1.205000X5.000000X1.205000X-5.000000X-0.361500X-5.000000X-1.205000X-4.156500X180.000000*%
%ADD25Outline5P,-1.205000X5.000000X1.205000X5.000000X1.205000X-4.156500X0.361500X-5.000000X-1.205000X-5.000000X180.000000*%
G04 APERTURE END LIST*
D10*
X156985000Y-68620000D02*
X128410000Y-68620000D01*
X128410000Y-57190000D01*
X156985000Y-57190000D01*
X156985000Y-68620000D01*
G36*
X156985000Y-68620000D02*
G01*
X128410000Y-68620000D01*
X128410000Y-57190000D01*
X156985000Y-57190000D01*
X156985000Y-68620000D01*
G37*
D11*
X154570000Y-74640000D03*
D12*
X154570000Y-77180000D03*
X154570000Y-79720000D03*
X162190000Y-79720000D03*
X162190000Y-77180000D03*
X162190000Y-74640000D03*
D13*
X144820000Y-79610000D03*
D14*
X144820000Y-77070000D03*
X144820000Y-74530000D03*
D15*
X157790000Y-117910000D03*
D16*
X157868000Y-97232000D03*
X157868000Y-90374000D03*
X127134000Y-90374000D03*
X127134000Y-97232000D03*
D17*
X124580000Y-105880000D03*
D18*
X124580000Y-123880000D03*
D15*
X129420000Y-117900000D03*
D16*
X150730000Y-73340000D03*
D19*
X150730000Y-80960000D03*
D16*
X158700000Y-113690000D03*
D19*
X158700000Y-106070000D03*
D20*
X151800000Y-125950000D03*
D21*
X151800000Y-123410000D03*
X151800000Y-120870000D03*
D22*
X151800000Y-118330000D03*
X151800000Y-115790000D03*
X151800000Y-113250000D03*
X151800000Y-110710000D03*
X151800000Y-108170000D03*
X151800000Y-105630000D03*
X148850000Y-105930000D03*
X146310000Y-105930000D03*
X143770000Y-105930000D03*
X141230000Y-105930000D03*
X138690000Y-105930000D03*
X136150000Y-105930000D03*
X133200000Y-105630000D03*
X133200000Y-108170000D03*
X133200000Y-110710000D03*
X133200000Y-113250000D03*
X133200000Y-115790000D03*
X133200000Y-118330000D03*
D21*
X133200000Y-120870000D03*
X133200000Y-123410000D03*
X133200000Y-125950000D03*
D23*
X132740000Y-63540000D03*
D24*
X136700000Y-63540000D03*
D25*
X140660000Y-63540000D03*
D23*
X144620000Y-63540000D03*
X148580000Y-63540000D03*
X152540000Y-63540000D03*
G36*
X127197039Y-72155685D02*
G01*
X127242794Y-72208489D01*
X127254000Y-72260000D01*
X127254000Y-74298000D01*
X127234315Y-74365039D01*
X127181511Y-74410794D01*
X127130000Y-74422000D01*
X119113405Y-74422000D01*
X119046366Y-74402315D01*
X119000611Y-74349511D01*
X118989405Y-74297987D01*
X118989620Y-72259987D01*
X119009312Y-72192950D01*
X119062120Y-72147200D01*
X119113620Y-72136000D01*
X127130000Y-72136000D01*
X127197039Y-72155685D01*
G37*
G36*
X127197039Y-75457685D02*
G01*
X127242794Y-75510489D01*
X127254000Y-75562000D01*
X127254000Y-77600000D01*
X127234315Y-77667039D01*
X127181511Y-77712794D01*
X127130000Y-77724000D01*
X119113058Y-77724000D01*
X119046019Y-77704315D01*
X119000264Y-77651511D01*
X118989058Y-77599987D01*
X118989272Y-75561987D01*
X119008964Y-75494950D01*
X119061772Y-75449200D01*
X119113272Y-75438000D01*
X127130000Y-75438000D01*
X127197039Y-75457685D01*
G37*
M02*
