G04 #@! TF.GenerationSoftware,KiCad,Pcbnew,8.0.9-8.0.9-0~ubuntu22.04.1*
G04 #@! TF.CreationDate,2025-09-14T16:49:04-04:00*
G04 #@! TF.ProjectId,TapeMate64,54617065-4d61-4746-9536-342e6b696361,rev?*
G04 #@! TF.SameCoordinates,Original*
G04 #@! TF.FileFunction,Legend,Bot*
G04 #@! TF.FilePolarity,Positive*
%FSLAX46Y46*%
G04 Gerber Fmt 4.6, Leading zero omitted, Abs format (unit mm)*
G04 Created by KiCad (PCBNEW 8.0.9-8.0.9-0~ubuntu22.04.1) date 2025-09-14 16:49:04*
%MOMM*%
%LPD*%
G01*
G04 APERTURE LIST*
G04 Aperture macros list*
%AMRoundRect*
0 Rectangle with rounded corners*
0 $1 Rounding radius*
0 $2 $3 $4 $5 $6 $7 $8 $9 X,Y pos of 4 corners*
0 Add a 4 corners polygon primitive as box body*
4,1,4,$2,$3,$4,$5,$6,$7,$8,$9,$2,$3,0*
0 Add four circle primitives for the rounded corners*
1,1,$1+$1,$2,$3*
1,1,$1+$1,$4,$5*
1,1,$1+$1,$6,$7*
1,1,$1+$1,$8,$9*
0 Add four rect primitives between the rounded corners*
20,1,$1+$1,$2,$3,$4,$5,0*
20,1,$1+$1,$4,$5,$6,$7,0*
20,1,$1+$1,$6,$7,$8,$9,0*
20,1,$1+$1,$8,$9,$2,$3,0*%
%AMOutline5P*
0 Free polygon, 5 corners , with rotation*
0 The origin of the aperture is its center*
0 number of corners: always 5*
0 $1 to $10 corner X, Y*
0 $11 Rotation angle, in degrees counterclockwise*
0 create outline with 5 corners*
4,1,5,$1,$2,$3,$4,$5,$6,$7,$8,$9,$10,$1,$2,$11*%
%AMOutline6P*
0 Free polygon, 6 corners , with rotation*
0 The origin of the aperture is its center*
0 number of corners: always 6*
0 $1 to $12 corner X, Y*
0 $13 Rotation angle, in degrees counterclockwise*
0 create outline with 6 corners*
4,1,6,$1,$2,$3,$4,$5,$6,$7,$8,$9,$10,$11,$12,$1,$2,$13*%
%AMOutline7P*
0 Free polygon, 7 corners , with rotation*
0 The origin of the aperture is its center*
0 number of corners: always 7*
0 $1 to $14 corner X, Y*
0 $15 Rotation angle, in degrees counterclockwise*
0 create outline with 7 corners*
4,1,7,$1,$2,$3,$4,$5,$6,$7,$8,$9,$10,$11,$12,$13,$14,$1,$2,$15*%
%AMOutline8P*
0 Free polygon, 8 corners , with rotation*
0 The origin of the aperture is its center*
0 number of corners: always 8*
0 $1 to $16 corner X, Y*
0 $17 Rotation angle, in degrees counterclockwise*
0 create outline with 8 corners*
4,1,8,$1,$2,$3,$4,$5,$6,$7,$8,$9,$10,$11,$12,$13,$14,$15,$16,$1,$2,$17*%
G04 Aperture macros list end*
%ADD10C,0.300000*%
%ADD11C,0.100000*%
%ADD12R,1.600000X1.600000*%
%ADD13O,1.600000X1.600000*%
%ADD14R,2.000000X1.905000*%
%ADD15O,2.000000X1.905000*%
%ADD16C,2.200000*%
%ADD17C,1.400000*%
%ADD18R,2.400000X2.400000*%
%ADD19O,2.400000X2.400000*%
%ADD20O,1.400000X1.400000*%
%ADD21RoundRect,0.101600X0.850000X0.850000X-0.850000X0.850000X-0.850000X-0.850000X0.850000X-0.850000X0*%
%ADD22C,1.903200*%
%ADD23C,1.700000*%
%ADD24R,2.410000X10.000000*%
%ADD25Outline5P,-1.205000X5.000000X1.205000X5.000000X1.205000X-5.000000X-0.361500X-5.000000X-1.205000X-4.156500X180.000000*%
%ADD26Outline5P,-1.205000X5.000000X1.205000X5.000000X1.205000X-4.156500X0.361500X-5.000000X-1.205000X-5.000000X180.000000*%
G04 APERTURE END LIST*
D10*
X133755489Y-73950828D02*
X133755489Y-72450828D01*
X133755489Y-72450828D02*
X133255489Y-73522257D01*
X133255489Y-73522257D02*
X132755489Y-72450828D01*
X132755489Y-72450828D02*
X132755489Y-73950828D01*
X131826917Y-73950828D02*
X131969774Y-73879400D01*
X131969774Y-73879400D02*
X132041203Y-73807971D01*
X132041203Y-73807971D02*
X132112631Y-73665114D01*
X132112631Y-73665114D02*
X132112631Y-73236542D01*
X132112631Y-73236542D02*
X132041203Y-73093685D01*
X132041203Y-73093685D02*
X131969774Y-73022257D01*
X131969774Y-73022257D02*
X131826917Y-72950828D01*
X131826917Y-72950828D02*
X131612631Y-72950828D01*
X131612631Y-72950828D02*
X131469774Y-73022257D01*
X131469774Y-73022257D02*
X131398346Y-73093685D01*
X131398346Y-73093685D02*
X131326917Y-73236542D01*
X131326917Y-73236542D02*
X131326917Y-73665114D01*
X131326917Y-73665114D02*
X131398346Y-73807971D01*
X131398346Y-73807971D02*
X131469774Y-73879400D01*
X131469774Y-73879400D02*
X131612631Y-73950828D01*
X131612631Y-73950828D02*
X131826917Y-73950828D01*
X130898345Y-72950828D02*
X130326917Y-72950828D01*
X130684060Y-72450828D02*
X130684060Y-73736542D01*
X130684060Y-73736542D02*
X130612631Y-73879400D01*
X130612631Y-73879400D02*
X130469774Y-73950828D01*
X130469774Y-73950828D02*
X130326917Y-73950828D01*
X129612631Y-73950828D02*
X129755488Y-73879400D01*
X129755488Y-73879400D02*
X129826917Y-73807971D01*
X129826917Y-73807971D02*
X129898345Y-73665114D01*
X129898345Y-73665114D02*
X129898345Y-73236542D01*
X129898345Y-73236542D02*
X129826917Y-73093685D01*
X129826917Y-73093685D02*
X129755488Y-73022257D01*
X129755488Y-73022257D02*
X129612631Y-72950828D01*
X129612631Y-72950828D02*
X129398345Y-72950828D01*
X129398345Y-72950828D02*
X129255488Y-73022257D01*
X129255488Y-73022257D02*
X129184060Y-73093685D01*
X129184060Y-73093685D02*
X129112631Y-73236542D01*
X129112631Y-73236542D02*
X129112631Y-73665114D01*
X129112631Y-73665114D02*
X129184060Y-73807971D01*
X129184060Y-73807971D02*
X129255488Y-73879400D01*
X129255488Y-73879400D02*
X129398345Y-73950828D01*
X129398345Y-73950828D02*
X129612631Y-73950828D01*
X128469774Y-73950828D02*
X128469774Y-72950828D01*
X128469774Y-73236542D02*
X128398345Y-73093685D01*
X128398345Y-73093685D02*
X128326917Y-73022257D01*
X128326917Y-73022257D02*
X128184059Y-72950828D01*
X128184059Y-72950828D02*
X128041202Y-72950828D01*
D11*
X136851353Y-80165752D02*
X136613258Y-80832419D01*
X136375163Y-80165752D02*
X136613258Y-80832419D01*
X136613258Y-80832419D02*
X136708496Y-81070514D01*
X136708496Y-81070514D02*
X136756115Y-81118133D01*
X136756115Y-81118133D02*
X136851353Y-81165752D01*
X135994210Y-80832419D02*
X135994210Y-79832419D01*
X135565639Y-80832419D02*
X135565639Y-80308609D01*
X135565639Y-80308609D02*
X135613258Y-80213371D01*
X135613258Y-80213371D02*
X135708496Y-80165752D01*
X135708496Y-80165752D02*
X135851353Y-80165752D01*
X135851353Y-80165752D02*
X135946591Y-80213371D01*
X135946591Y-80213371D02*
X135994210Y-80260990D01*
X134708496Y-80784800D02*
X134803734Y-80832419D01*
X134803734Y-80832419D02*
X134994210Y-80832419D01*
X134994210Y-80832419D02*
X135089448Y-80784800D01*
X135089448Y-80784800D02*
X135137067Y-80689561D01*
X135137067Y-80689561D02*
X135137067Y-80308609D01*
X135137067Y-80308609D02*
X135089448Y-80213371D01*
X135089448Y-80213371D02*
X134994210Y-80165752D01*
X134994210Y-80165752D02*
X134803734Y-80165752D01*
X134803734Y-80165752D02*
X134708496Y-80213371D01*
X134708496Y-80213371D02*
X134660877Y-80308609D01*
X134660877Y-80308609D02*
X134660877Y-80403847D01*
X134660877Y-80403847D02*
X135137067Y-80499085D01*
X134232305Y-80165752D02*
X134232305Y-80832419D01*
X134232305Y-80260990D02*
X134184686Y-80213371D01*
X134184686Y-80213371D02*
X134089448Y-80165752D01*
X134089448Y-80165752D02*
X133946591Y-80165752D01*
X133946591Y-80165752D02*
X133851353Y-80213371D01*
X133851353Y-80213371D02*
X133803734Y-80308609D01*
X133803734Y-80308609D02*
X133803734Y-80832419D01*
X132946591Y-80784800D02*
X133041829Y-80832419D01*
X133041829Y-80832419D02*
X133232305Y-80832419D01*
X133232305Y-80832419D02*
X133327543Y-80784800D01*
X133327543Y-80784800D02*
X133375162Y-80689561D01*
X133375162Y-80689561D02*
X133375162Y-80308609D01*
X133375162Y-80308609D02*
X133327543Y-80213371D01*
X133327543Y-80213371D02*
X133232305Y-80165752D01*
X133232305Y-80165752D02*
X133041829Y-80165752D01*
X133041829Y-80165752D02*
X132946591Y-80213371D01*
X132946591Y-80213371D02*
X132898972Y-80308609D01*
X132898972Y-80308609D02*
X132898972Y-80403847D01*
X132898972Y-80403847D02*
X133375162Y-80499085D01*
X132041829Y-80832419D02*
X132041829Y-80308609D01*
X132041829Y-80308609D02*
X132089448Y-80213371D01*
X132089448Y-80213371D02*
X132184686Y-80165752D01*
X132184686Y-80165752D02*
X132375162Y-80165752D01*
X132375162Y-80165752D02*
X132470400Y-80213371D01*
X132041829Y-80784800D02*
X132137067Y-80832419D01*
X132137067Y-80832419D02*
X132375162Y-80832419D01*
X132375162Y-80832419D02*
X132470400Y-80784800D01*
X132470400Y-80784800D02*
X132518019Y-80689561D01*
X132518019Y-80689561D02*
X132518019Y-80594323D01*
X132518019Y-80594323D02*
X132470400Y-80499085D01*
X132470400Y-80499085D02*
X132375162Y-80451466D01*
X132375162Y-80451466D02*
X132137067Y-80451466D01*
X132137067Y-80451466D02*
X132041829Y-80403847D01*
X131137067Y-80165752D02*
X131137067Y-80832419D01*
X131565638Y-80165752D02*
X131565638Y-80689561D01*
X131565638Y-80689561D02*
X131518019Y-80784800D01*
X131518019Y-80784800D02*
X131422781Y-80832419D01*
X131422781Y-80832419D02*
X131279924Y-80832419D01*
X131279924Y-80832419D02*
X131184686Y-80784800D01*
X131184686Y-80784800D02*
X131137067Y-80737180D01*
X130518019Y-80832419D02*
X130613257Y-80784800D01*
X130613257Y-80784800D02*
X130660876Y-80689561D01*
X130660876Y-80689561D02*
X130660876Y-79832419D01*
X129518019Y-80356228D02*
X129565638Y-80308609D01*
X129565638Y-80308609D02*
X129660876Y-80260990D01*
X129660876Y-80260990D02*
X129756114Y-80260990D01*
X129756114Y-80260990D02*
X129851352Y-80308609D01*
X129851352Y-80308609D02*
X129898971Y-80356228D01*
X129898971Y-80356228D02*
X129946590Y-80451466D01*
X129946590Y-80451466D02*
X129946590Y-80546704D01*
X129946590Y-80546704D02*
X129898971Y-80641942D01*
X129898971Y-80641942D02*
X129851352Y-80689561D01*
X129851352Y-80689561D02*
X129756114Y-80737180D01*
X129756114Y-80737180D02*
X129660876Y-80737180D01*
X129660876Y-80737180D02*
X129565638Y-80689561D01*
X129565638Y-80689561D02*
X129518019Y-80641942D01*
X129518019Y-80260990D02*
X129518019Y-80641942D01*
X129518019Y-80641942D02*
X129470400Y-80689561D01*
X129470400Y-80689561D02*
X129422781Y-80689561D01*
X129422781Y-80689561D02*
X129327542Y-80641942D01*
X129327542Y-80641942D02*
X129279923Y-80546704D01*
X129279923Y-80546704D02*
X129279923Y-80308609D01*
X129279923Y-80308609D02*
X129375162Y-80165752D01*
X129375162Y-80165752D02*
X129518019Y-80070514D01*
X129518019Y-80070514D02*
X129708495Y-80022895D01*
X129708495Y-80022895D02*
X129898971Y-80070514D01*
X129898971Y-80070514D02*
X130041828Y-80165752D01*
X130041828Y-80165752D02*
X130137066Y-80308609D01*
X130137066Y-80308609D02*
X130184685Y-80499085D01*
X130184685Y-80499085D02*
X130137066Y-80689561D01*
X130137066Y-80689561D02*
X130041828Y-80832419D01*
X130041828Y-80832419D02*
X129898971Y-80927657D01*
X129898971Y-80927657D02*
X129708495Y-80975276D01*
X129708495Y-80975276D02*
X129518019Y-80927657D01*
X129518019Y-80927657D02*
X129375162Y-80832419D01*
X128422781Y-80165752D02*
X128422781Y-80975276D01*
X128422781Y-80975276D02*
X128470400Y-81070514D01*
X128470400Y-81070514D02*
X128518019Y-81118133D01*
X128518019Y-81118133D02*
X128613257Y-81165752D01*
X128613257Y-81165752D02*
X128756114Y-81165752D01*
X128756114Y-81165752D02*
X128851352Y-81118133D01*
X128422781Y-80784800D02*
X128518019Y-80832419D01*
X128518019Y-80832419D02*
X128708495Y-80832419D01*
X128708495Y-80832419D02*
X128803733Y-80784800D01*
X128803733Y-80784800D02*
X128851352Y-80737180D01*
X128851352Y-80737180D02*
X128898971Y-80641942D01*
X128898971Y-80641942D02*
X128898971Y-80356228D01*
X128898971Y-80356228D02*
X128851352Y-80260990D01*
X128851352Y-80260990D02*
X128803733Y-80213371D01*
X128803733Y-80213371D02*
X128708495Y-80165752D01*
X128708495Y-80165752D02*
X128518019Y-80165752D01*
X128518019Y-80165752D02*
X128422781Y-80213371D01*
X127946590Y-80832419D02*
X127946590Y-80165752D01*
X127946590Y-80260990D02*
X127898971Y-80213371D01*
X127898971Y-80213371D02*
X127803733Y-80165752D01*
X127803733Y-80165752D02*
X127660876Y-80165752D01*
X127660876Y-80165752D02*
X127565638Y-80213371D01*
X127565638Y-80213371D02*
X127518019Y-80308609D01*
X127518019Y-80308609D02*
X127518019Y-80832419D01*
X127518019Y-80308609D02*
X127470400Y-80213371D01*
X127470400Y-80213371D02*
X127375162Y-80165752D01*
X127375162Y-80165752D02*
X127232305Y-80165752D01*
X127232305Y-80165752D02*
X127137066Y-80213371D01*
X127137066Y-80213371D02*
X127089447Y-80308609D01*
X127089447Y-80308609D02*
X127089447Y-80832419D01*
X126184686Y-80832419D02*
X126184686Y-80308609D01*
X126184686Y-80308609D02*
X126232305Y-80213371D01*
X126232305Y-80213371D02*
X126327543Y-80165752D01*
X126327543Y-80165752D02*
X126518019Y-80165752D01*
X126518019Y-80165752D02*
X126613257Y-80213371D01*
X126184686Y-80784800D02*
X126279924Y-80832419D01*
X126279924Y-80832419D02*
X126518019Y-80832419D01*
X126518019Y-80832419D02*
X126613257Y-80784800D01*
X126613257Y-80784800D02*
X126660876Y-80689561D01*
X126660876Y-80689561D02*
X126660876Y-80594323D01*
X126660876Y-80594323D02*
X126613257Y-80499085D01*
X126613257Y-80499085D02*
X126518019Y-80451466D01*
X126518019Y-80451466D02*
X126279924Y-80451466D01*
X126279924Y-80451466D02*
X126184686Y-80403847D01*
X125708495Y-80832419D02*
X125708495Y-80165752D01*
X125708495Y-79832419D02*
X125756114Y-79880038D01*
X125756114Y-79880038D02*
X125708495Y-79927657D01*
X125708495Y-79927657D02*
X125660876Y-79880038D01*
X125660876Y-79880038D02*
X125708495Y-79832419D01*
X125708495Y-79832419D02*
X125708495Y-79927657D01*
X125089448Y-80832419D02*
X125184686Y-80784800D01*
X125184686Y-80784800D02*
X125232305Y-80689561D01*
X125232305Y-80689561D02*
X125232305Y-79832419D01*
X124708495Y-80737180D02*
X124660876Y-80784800D01*
X124660876Y-80784800D02*
X124708495Y-80832419D01*
X124708495Y-80832419D02*
X124756114Y-80784800D01*
X124756114Y-80784800D02*
X124708495Y-80737180D01*
X124708495Y-80737180D02*
X124708495Y-80832419D01*
X123803734Y-80784800D02*
X123898972Y-80832419D01*
X123898972Y-80832419D02*
X124089448Y-80832419D01*
X124089448Y-80832419D02*
X124184686Y-80784800D01*
X124184686Y-80784800D02*
X124232305Y-80737180D01*
X124232305Y-80737180D02*
X124279924Y-80641942D01*
X124279924Y-80641942D02*
X124279924Y-80356228D01*
X124279924Y-80356228D02*
X124232305Y-80260990D01*
X124232305Y-80260990D02*
X124184686Y-80213371D01*
X124184686Y-80213371D02*
X124089448Y-80165752D01*
X124089448Y-80165752D02*
X123898972Y-80165752D01*
X123898972Y-80165752D02*
X123803734Y-80213371D01*
X123232305Y-80832419D02*
X123327543Y-80784800D01*
X123327543Y-80784800D02*
X123375162Y-80737180D01*
X123375162Y-80737180D02*
X123422781Y-80641942D01*
X123422781Y-80641942D02*
X123422781Y-80356228D01*
X123422781Y-80356228D02*
X123375162Y-80260990D01*
X123375162Y-80260990D02*
X123327543Y-80213371D01*
X123327543Y-80213371D02*
X123232305Y-80165752D01*
X123232305Y-80165752D02*
X123089448Y-80165752D01*
X123089448Y-80165752D02*
X122994210Y-80213371D01*
X122994210Y-80213371D02*
X122946591Y-80260990D01*
X122946591Y-80260990D02*
X122898972Y-80356228D01*
X122898972Y-80356228D02*
X122898972Y-80641942D01*
X122898972Y-80641942D02*
X122946591Y-80737180D01*
X122946591Y-80737180D02*
X122994210Y-80784800D01*
X122994210Y-80784800D02*
X123089448Y-80832419D01*
X123089448Y-80832419D02*
X123232305Y-80832419D01*
X122470400Y-80832419D02*
X122470400Y-80165752D01*
X122470400Y-80260990D02*
X122422781Y-80213371D01*
X122422781Y-80213371D02*
X122327543Y-80165752D01*
X122327543Y-80165752D02*
X122184686Y-80165752D01*
X122184686Y-80165752D02*
X122089448Y-80213371D01*
X122089448Y-80213371D02*
X122041829Y-80308609D01*
X122041829Y-80308609D02*
X122041829Y-80832419D01*
X122041829Y-80308609D02*
X121994210Y-80213371D01*
X121994210Y-80213371D02*
X121898972Y-80165752D01*
X121898972Y-80165752D02*
X121756115Y-80165752D01*
X121756115Y-80165752D02*
X121660876Y-80213371D01*
X121660876Y-80213371D02*
X121613257Y-80308609D01*
X121613257Y-80308609D02*
X121613257Y-80832419D01*
D10*
X130869774Y-76002257D02*
X131012632Y-75930828D01*
X131012632Y-75930828D02*
X131226917Y-75930828D01*
X131226917Y-75930828D02*
X131441203Y-76002257D01*
X131441203Y-76002257D02*
X131584060Y-76145114D01*
X131584060Y-76145114D02*
X131655489Y-76287971D01*
X131655489Y-76287971D02*
X131726917Y-76573685D01*
X131726917Y-76573685D02*
X131726917Y-76787971D01*
X131726917Y-76787971D02*
X131655489Y-77073685D01*
X131655489Y-77073685D02*
X131584060Y-77216542D01*
X131584060Y-77216542D02*
X131441203Y-77359400D01*
X131441203Y-77359400D02*
X131226917Y-77430828D01*
X131226917Y-77430828D02*
X131084060Y-77430828D01*
X131084060Y-77430828D02*
X130869774Y-77359400D01*
X130869774Y-77359400D02*
X130798346Y-77287971D01*
X130798346Y-77287971D02*
X130798346Y-76787971D01*
X130798346Y-76787971D02*
X131084060Y-76787971D01*
X130155489Y-77430828D02*
X130155489Y-75930828D01*
X130155489Y-75930828D02*
X129298346Y-77430828D01*
X129298346Y-77430828D02*
X129298346Y-75930828D01*
X128584060Y-77430828D02*
X128584060Y-75930828D01*
X128584060Y-75930828D02*
X128226917Y-75930828D01*
X128226917Y-75930828D02*
X128012631Y-76002257D01*
X128012631Y-76002257D02*
X127869774Y-76145114D01*
X127869774Y-76145114D02*
X127798345Y-76287971D01*
X127798345Y-76287971D02*
X127726917Y-76573685D01*
X127726917Y-76573685D02*
X127726917Y-76787971D01*
X127726917Y-76787971D02*
X127798345Y-77073685D01*
X127798345Y-77073685D02*
X127869774Y-77216542D01*
X127869774Y-77216542D02*
X128012631Y-77359400D01*
X128012631Y-77359400D02*
X128226917Y-77430828D01*
X128226917Y-77430828D02*
X128584060Y-77430828D01*
%LPC*%
D11*
X156985000Y-68620000D02*
X128410000Y-68620000D01*
X128410000Y-57190000D01*
X156985000Y-57190000D01*
X156985000Y-68620000D01*
G36*
X156985000Y-68620000D02*
G01*
X128410000Y-68620000D01*
X128410000Y-57190000D01*
X156985000Y-57190000D01*
X156985000Y-68620000D01*
G37*
D12*
X154570000Y-74640000D03*
D13*
X154570000Y-77180000D03*
X154570000Y-79720000D03*
X162190000Y-79720000D03*
X162190000Y-77180000D03*
X162190000Y-74640000D03*
D14*
X144820000Y-79610000D03*
D15*
X144820000Y-77070000D03*
X144820000Y-74530000D03*
D16*
X157790000Y-117910000D03*
D17*
X157868000Y-97232000D03*
X157868000Y-90374000D03*
X127134000Y-90374000D03*
X127134000Y-97232000D03*
D18*
X124580000Y-105880000D03*
D19*
X124580000Y-123880000D03*
D16*
X129420000Y-117900000D03*
D17*
X150730000Y-73340000D03*
D20*
X150730000Y-80960000D03*
D17*
X158700000Y-113690000D03*
D20*
X158700000Y-106070000D03*
D21*
X151800000Y-125950000D03*
D22*
X151800000Y-123410000D03*
X151800000Y-120870000D03*
D23*
X151800000Y-118330000D03*
X151800000Y-115790000D03*
X151800000Y-113250000D03*
X151800000Y-110710000D03*
X151800000Y-108170000D03*
X151800000Y-105630000D03*
X148850000Y-105930000D03*
X146310000Y-105930000D03*
X143770000Y-105930000D03*
X141230000Y-105930000D03*
X138690000Y-105930000D03*
X136150000Y-105930000D03*
X133200000Y-105630000D03*
X133200000Y-108170000D03*
X133200000Y-110710000D03*
X133200000Y-113250000D03*
X133200000Y-115790000D03*
X133200000Y-118330000D03*
D22*
X133200000Y-120870000D03*
X133200000Y-123410000D03*
X133200000Y-125950000D03*
D24*
X132740000Y-63540000D03*
D25*
X136700000Y-63540000D03*
D26*
X140660000Y-63540000D03*
D24*
X144620000Y-63540000D03*
X148580000Y-63540000D03*
X152540000Y-63540000D03*
G36*
X127197039Y-72155685D02*
G01*
X127242794Y-72208489D01*
X127254000Y-72260000D01*
X127254000Y-74298000D01*
X127234315Y-74365039D01*
X127181511Y-74410794D01*
X127130000Y-74422000D01*
X119113405Y-74422000D01*
X119046366Y-74402315D01*
X119000611Y-74349511D01*
X118989405Y-74297987D01*
X118989620Y-72259987D01*
X119009312Y-72192950D01*
X119062120Y-72147200D01*
X119113620Y-72136000D01*
X127130000Y-72136000D01*
X127197039Y-72155685D01*
G37*
G36*
X127197039Y-75457685D02*
G01*
X127242794Y-75510489D01*
X127254000Y-75562000D01*
X127254000Y-77600000D01*
X127234315Y-77667039D01*
X127181511Y-77712794D01*
X127130000Y-77724000D01*
X119113058Y-77724000D01*
X119046019Y-77704315D01*
X119000264Y-77651511D01*
X118989058Y-77599987D01*
X118989272Y-75561987D01*
X119008964Y-75494950D01*
X119061772Y-75449200D01*
X119113272Y-75438000D01*
X127130000Y-75438000D01*
X127197039Y-75457685D01*
G37*
%LPD*%
M02*
