G04 #@! TF.GenerationSoftware,KiCad,Pcbnew,8.0.9-8.0.9-0~ubuntu22.04.1*
G04 #@! TF.CreationDate,2025-09-14T16:49:04-04:00*
G04 #@! TF.ProjectId,TapeMate64,54617065-4d61-4746-9536-342e6b696361,rev?*
G04 #@! TF.SameCoordinates,Original*
G04 #@! TF.FileFunction,Legend,Top*
G04 #@! TF.FilePolarity,Positive*
%FSLAX46Y46*%
G04 Gerber Fmt 4.6, Leading zero omitted, Abs format (unit mm)*
G04 Created by KiCad (PCBNEW 8.0.9-8.0.9-0~ubuntu22.04.1) date 2025-09-14 16:49:04*
%MOMM*%
%LPD*%
G01*
G04 APERTURE LIST*
G04 Aperture macros list*
%AMRoundRect*
0 Rectangle with rounded corners*
0 $1 Rounding radius*
0 $2 $3 $4 $5 $6 $7 $8 $9 X,Y pos of 4 corners*
0 Add a 4 corners polygon primitive as box body*
4,1,4,$2,$3,$4,$5,$6,$7,$8,$9,$2,$3,0*
0 Add four circle primitives for the rounded corners*
1,1,$1+$1,$2,$3*
1,1,$1+$1,$4,$5*
1,1,$1+$1,$6,$7*
1,1,$1+$1,$8,$9*
0 Add four rect primitives between the rounded corners*
20,1,$1+$1,$2,$3,$4,$5,0*
20,1,$1+$1,$4,$5,$6,$7,0*
20,1,$1+$1,$6,$7,$8,$9,0*
20,1,$1+$1,$8,$9,$2,$3,0*%
G04 Aperture macros list end*
%ADD10C,0.300000*%
%ADD11C,0.150000*%
%ADD12C,0.100000*%
%ADD13C,0.120000*%
%ADD14C,0.127000*%
%ADD15R,1.600000X1.600000*%
%ADD16O,1.600000X1.600000*%
%ADD17R,2.000000X1.905000*%
%ADD18O,2.000000X1.905000*%
%ADD19C,2.200000*%
%ADD20C,1.400000*%
%ADD21R,2.400000X2.400000*%
%ADD22O,2.400000X2.400000*%
%ADD23O,1.400000X1.400000*%
%ADD24RoundRect,0.101600X0.850000X0.850000X-0.850000X0.850000X-0.850000X-0.850000X0.850000X-0.850000X0*%
%ADD25C,1.903200*%
%ADD26C,1.700000*%
G04 APERTURE END LIST*
D10*
X162240828Y-126319774D02*
X162240828Y-125462632D01*
X163740828Y-125891203D02*
X162240828Y-125891203D01*
X163740828Y-124319775D02*
X162955114Y-124319775D01*
X162955114Y-124319775D02*
X162812257Y-124391203D01*
X162812257Y-124391203D02*
X162740828Y-124534060D01*
X162740828Y-124534060D02*
X162740828Y-124819775D01*
X162740828Y-124819775D02*
X162812257Y-124962632D01*
X163669400Y-124319775D02*
X163740828Y-124462632D01*
X163740828Y-124462632D02*
X163740828Y-124819775D01*
X163740828Y-124819775D02*
X163669400Y-124962632D01*
X163669400Y-124962632D02*
X163526542Y-125034060D01*
X163526542Y-125034060D02*
X163383685Y-125034060D01*
X163383685Y-125034060D02*
X163240828Y-124962632D01*
X163240828Y-124962632D02*
X163169400Y-124819775D01*
X163169400Y-124819775D02*
X163169400Y-124462632D01*
X163169400Y-124462632D02*
X163097971Y-124319775D01*
X162740828Y-123605489D02*
X164240828Y-123605489D01*
X162812257Y-123605489D02*
X162740828Y-123462632D01*
X162740828Y-123462632D02*
X162740828Y-123176917D01*
X162740828Y-123176917D02*
X162812257Y-123034060D01*
X162812257Y-123034060D02*
X162883685Y-122962632D01*
X162883685Y-122962632D02*
X163026542Y-122891203D01*
X163026542Y-122891203D02*
X163455114Y-122891203D01*
X163455114Y-122891203D02*
X163597971Y-122962632D01*
X163597971Y-122962632D02*
X163669400Y-123034060D01*
X163669400Y-123034060D02*
X163740828Y-123176917D01*
X163740828Y-123176917D02*
X163740828Y-123462632D01*
X163740828Y-123462632D02*
X163669400Y-123605489D01*
X163669400Y-121676917D02*
X163740828Y-121819774D01*
X163740828Y-121819774D02*
X163740828Y-122105489D01*
X163740828Y-122105489D02*
X163669400Y-122248346D01*
X163669400Y-122248346D02*
X163526542Y-122319774D01*
X163526542Y-122319774D02*
X162955114Y-122319774D01*
X162955114Y-122319774D02*
X162812257Y-122248346D01*
X162812257Y-122248346D02*
X162740828Y-122105489D01*
X162740828Y-122105489D02*
X162740828Y-121819774D01*
X162740828Y-121819774D02*
X162812257Y-121676917D01*
X162812257Y-121676917D02*
X162955114Y-121605489D01*
X162955114Y-121605489D02*
X163097971Y-121605489D01*
X163097971Y-121605489D02*
X163240828Y-122319774D01*
X163740828Y-120962632D02*
X162240828Y-120962632D01*
X162240828Y-120962632D02*
X163312257Y-120462632D01*
X163312257Y-120462632D02*
X162240828Y-119962632D01*
X162240828Y-119962632D02*
X163740828Y-119962632D01*
X163740828Y-118605489D02*
X162955114Y-118605489D01*
X162955114Y-118605489D02*
X162812257Y-118676917D01*
X162812257Y-118676917D02*
X162740828Y-118819774D01*
X162740828Y-118819774D02*
X162740828Y-119105489D01*
X162740828Y-119105489D02*
X162812257Y-119248346D01*
X163669400Y-118605489D02*
X163740828Y-118748346D01*
X163740828Y-118748346D02*
X163740828Y-119105489D01*
X163740828Y-119105489D02*
X163669400Y-119248346D01*
X163669400Y-119248346D02*
X163526542Y-119319774D01*
X163526542Y-119319774D02*
X163383685Y-119319774D01*
X163383685Y-119319774D02*
X163240828Y-119248346D01*
X163240828Y-119248346D02*
X163169400Y-119105489D01*
X163169400Y-119105489D02*
X163169400Y-118748346D01*
X163169400Y-118748346D02*
X163097971Y-118605489D01*
X162740828Y-118105488D02*
X162740828Y-117534060D01*
X162240828Y-117891203D02*
X163526542Y-117891203D01*
X163526542Y-117891203D02*
X163669400Y-117819774D01*
X163669400Y-117819774D02*
X163740828Y-117676917D01*
X163740828Y-117676917D02*
X163740828Y-117534060D01*
X163669400Y-116462631D02*
X163740828Y-116605488D01*
X163740828Y-116605488D02*
X163740828Y-116891203D01*
X163740828Y-116891203D02*
X163669400Y-117034060D01*
X163669400Y-117034060D02*
X163526542Y-117105488D01*
X163526542Y-117105488D02*
X162955114Y-117105488D01*
X162955114Y-117105488D02*
X162812257Y-117034060D01*
X162812257Y-117034060D02*
X162740828Y-116891203D01*
X162740828Y-116891203D02*
X162740828Y-116605488D01*
X162740828Y-116605488D02*
X162812257Y-116462631D01*
X162812257Y-116462631D02*
X162955114Y-116391203D01*
X162955114Y-116391203D02*
X163097971Y-116391203D01*
X163097971Y-116391203D02*
X163240828Y-117105488D01*
X162240828Y-115105489D02*
X162240828Y-115391203D01*
X162240828Y-115391203D02*
X162312257Y-115534060D01*
X162312257Y-115534060D02*
X162383685Y-115605489D01*
X162383685Y-115605489D02*
X162597971Y-115748346D01*
X162597971Y-115748346D02*
X162883685Y-115819774D01*
X162883685Y-115819774D02*
X163455114Y-115819774D01*
X163455114Y-115819774D02*
X163597971Y-115748346D01*
X163597971Y-115748346D02*
X163669400Y-115676917D01*
X163669400Y-115676917D02*
X163740828Y-115534060D01*
X163740828Y-115534060D02*
X163740828Y-115248346D01*
X163740828Y-115248346D02*
X163669400Y-115105489D01*
X163669400Y-115105489D02*
X163597971Y-115034060D01*
X163597971Y-115034060D02*
X163455114Y-114962631D01*
X163455114Y-114962631D02*
X163097971Y-114962631D01*
X163097971Y-114962631D02*
X162955114Y-115034060D01*
X162955114Y-115034060D02*
X162883685Y-115105489D01*
X162883685Y-115105489D02*
X162812257Y-115248346D01*
X162812257Y-115248346D02*
X162812257Y-115534060D01*
X162812257Y-115534060D02*
X162883685Y-115676917D01*
X162883685Y-115676917D02*
X162955114Y-115748346D01*
X162955114Y-115748346D02*
X163097971Y-115819774D01*
X162740828Y-113676918D02*
X163740828Y-113676918D01*
X162169400Y-114034060D02*
X163240828Y-114391203D01*
X163240828Y-114391203D02*
X163240828Y-113462632D01*
X162240828Y-111962632D02*
X163740828Y-111462632D01*
X163740828Y-111462632D02*
X162240828Y-110962632D01*
X163740828Y-109676918D02*
X163740828Y-110534061D01*
X163740828Y-110105490D02*
X162240828Y-110105490D01*
X162240828Y-110105490D02*
X162455114Y-110248347D01*
X162455114Y-110248347D02*
X162597971Y-110391204D01*
X162597971Y-110391204D02*
X162669400Y-110534061D01*
X163597971Y-109034062D02*
X163669400Y-108962633D01*
X163669400Y-108962633D02*
X163740828Y-109034062D01*
X163740828Y-109034062D02*
X163669400Y-109105490D01*
X163669400Y-109105490D02*
X163597971Y-109034062D01*
X163597971Y-109034062D02*
X163740828Y-109034062D01*
X162240828Y-108034061D02*
X162240828Y-107891204D01*
X162240828Y-107891204D02*
X162312257Y-107748347D01*
X162312257Y-107748347D02*
X162383685Y-107676919D01*
X162383685Y-107676919D02*
X162526542Y-107605490D01*
X162526542Y-107605490D02*
X162812257Y-107534061D01*
X162812257Y-107534061D02*
X163169400Y-107534061D01*
X163169400Y-107534061D02*
X163455114Y-107605490D01*
X163455114Y-107605490D02*
X163597971Y-107676919D01*
X163597971Y-107676919D02*
X163669400Y-107748347D01*
X163669400Y-107748347D02*
X163740828Y-107891204D01*
X163740828Y-107891204D02*
X163740828Y-108034061D01*
X163740828Y-108034061D02*
X163669400Y-108176919D01*
X163669400Y-108176919D02*
X163597971Y-108248347D01*
X163597971Y-108248347D02*
X163455114Y-108319776D01*
X163455114Y-108319776D02*
X163169400Y-108391204D01*
X163169400Y-108391204D02*
X162812257Y-108391204D01*
X162812257Y-108391204D02*
X162526542Y-108319776D01*
X162526542Y-108319776D02*
X162383685Y-108248347D01*
X162383685Y-108248347D02*
X162312257Y-108176919D01*
X162312257Y-108176919D02*
X162240828Y-108034061D01*
D11*
X157618095Y-71764819D02*
X157618095Y-72574342D01*
X157618095Y-72574342D02*
X157665714Y-72669580D01*
X157665714Y-72669580D02*
X157713333Y-72717200D01*
X157713333Y-72717200D02*
X157808571Y-72764819D01*
X157808571Y-72764819D02*
X157999047Y-72764819D01*
X157999047Y-72764819D02*
X158094285Y-72717200D01*
X158094285Y-72717200D02*
X158141904Y-72669580D01*
X158141904Y-72669580D02*
X158189523Y-72574342D01*
X158189523Y-72574342D02*
X158189523Y-71764819D01*
X158618095Y-71860057D02*
X158665714Y-71812438D01*
X158665714Y-71812438D02*
X158760952Y-71764819D01*
X158760952Y-71764819D02*
X158999047Y-71764819D01*
X158999047Y-71764819D02*
X159094285Y-71812438D01*
X159094285Y-71812438D02*
X159141904Y-71860057D01*
X159141904Y-71860057D02*
X159189523Y-71955295D01*
X159189523Y-71955295D02*
X159189523Y-72050533D01*
X159189523Y-72050533D02*
X159141904Y-72193390D01*
X159141904Y-72193390D02*
X158570476Y-72764819D01*
X158570476Y-72764819D02*
X159189523Y-72764819D01*
X141100057Y-77165238D02*
X141052438Y-77260476D01*
X141052438Y-77260476D02*
X140957200Y-77355714D01*
X140957200Y-77355714D02*
X140814342Y-77498571D01*
X140814342Y-77498571D02*
X140766723Y-77593809D01*
X140766723Y-77593809D02*
X140766723Y-77689047D01*
X141004819Y-77641428D02*
X140957200Y-77736666D01*
X140957200Y-77736666D02*
X140861961Y-77831904D01*
X140861961Y-77831904D02*
X140671485Y-77879523D01*
X140671485Y-77879523D02*
X140338152Y-77879523D01*
X140338152Y-77879523D02*
X140147676Y-77831904D01*
X140147676Y-77831904D02*
X140052438Y-77736666D01*
X140052438Y-77736666D02*
X140004819Y-77641428D01*
X140004819Y-77641428D02*
X140004819Y-77450952D01*
X140004819Y-77450952D02*
X140052438Y-77355714D01*
X140052438Y-77355714D02*
X140147676Y-77260476D01*
X140147676Y-77260476D02*
X140338152Y-77212857D01*
X140338152Y-77212857D02*
X140671485Y-77212857D01*
X140671485Y-77212857D02*
X140861961Y-77260476D01*
X140861961Y-77260476D02*
X140957200Y-77355714D01*
X140957200Y-77355714D02*
X141004819Y-77450952D01*
X141004819Y-77450952D02*
X141004819Y-77641428D01*
X141004819Y-76260476D02*
X141004819Y-76831904D01*
X141004819Y-76546190D02*
X140004819Y-76546190D01*
X140004819Y-76546190D02*
X140147676Y-76641428D01*
X140147676Y-76641428D02*
X140242914Y-76736666D01*
X140242914Y-76736666D02*
X140290533Y-76831904D01*
X125558095Y-83884819D02*
X125558095Y-84694342D01*
X125558095Y-84694342D02*
X125605714Y-84789580D01*
X125605714Y-84789580D02*
X125653333Y-84837200D01*
X125653333Y-84837200D02*
X125748571Y-84884819D01*
X125748571Y-84884819D02*
X125939047Y-84884819D01*
X125939047Y-84884819D02*
X126034285Y-84837200D01*
X126034285Y-84837200D02*
X126081904Y-84789580D01*
X126081904Y-84789580D02*
X126129523Y-84694342D01*
X126129523Y-84694342D02*
X126129523Y-83884819D01*
X126510476Y-83884819D02*
X127129523Y-83884819D01*
X127129523Y-83884819D02*
X126796190Y-84265771D01*
X126796190Y-84265771D02*
X126939047Y-84265771D01*
X126939047Y-84265771D02*
X127034285Y-84313390D01*
X127034285Y-84313390D02*
X127081904Y-84361009D01*
X127081904Y-84361009D02*
X127129523Y-84456247D01*
X127129523Y-84456247D02*
X127129523Y-84694342D01*
X127129523Y-84694342D02*
X127081904Y-84789580D01*
X127081904Y-84789580D02*
X127034285Y-84837200D01*
X127034285Y-84837200D02*
X126939047Y-84884819D01*
X126939047Y-84884819D02*
X126653333Y-84884819D01*
X126653333Y-84884819D02*
X126558095Y-84837200D01*
X126558095Y-84837200D02*
X126510476Y-84789580D01*
X122079819Y-97816077D02*
X123079819Y-97482744D01*
X123079819Y-97482744D02*
X122079819Y-97149411D01*
X123079819Y-96816077D02*
X122079819Y-96816077D01*
X123079819Y-96339887D02*
X122079819Y-96339887D01*
X122079819Y-96339887D02*
X123079819Y-95768459D01*
X123079819Y-95768459D02*
X122079819Y-95768459D01*
X122698866Y-95292268D02*
X122698866Y-94530364D01*
X123079819Y-94911316D02*
X122317914Y-94911316D01*
X122289819Y-91306077D02*
X123289819Y-90972744D01*
X123289819Y-90972744D02*
X122289819Y-90639411D01*
X123289819Y-90306077D02*
X122289819Y-90306077D01*
X123289819Y-89829887D02*
X122289819Y-89829887D01*
X122289819Y-89829887D02*
X123289819Y-89258459D01*
X123289819Y-89258459D02*
X122289819Y-89258459D01*
X122908866Y-88782268D02*
X122908866Y-88020364D01*
X162950180Y-89083922D02*
X161950180Y-89417255D01*
X161950180Y-89417255D02*
X162950180Y-89750588D01*
X162950180Y-90274398D02*
X162950180Y-90464874D01*
X162950180Y-90464874D02*
X162902561Y-90560112D01*
X162902561Y-90560112D02*
X162807323Y-90655350D01*
X162807323Y-90655350D02*
X162616847Y-90702969D01*
X162616847Y-90702969D02*
X162283514Y-90702969D01*
X162283514Y-90702969D02*
X162093038Y-90655350D01*
X162093038Y-90655350D02*
X161997800Y-90560112D01*
X161997800Y-90560112D02*
X161950180Y-90464874D01*
X161950180Y-90464874D02*
X161950180Y-90274398D01*
X161950180Y-90274398D02*
X161997800Y-90179160D01*
X161997800Y-90179160D02*
X162093038Y-90083922D01*
X162093038Y-90083922D02*
X162283514Y-90036303D01*
X162283514Y-90036303D02*
X162616847Y-90036303D01*
X162616847Y-90036303D02*
X162807323Y-90083922D01*
X162807323Y-90083922D02*
X162902561Y-90179160D01*
X162902561Y-90179160D02*
X162950180Y-90274398D01*
X162950180Y-91131541D02*
X162140657Y-91131541D01*
X162140657Y-91131541D02*
X162045419Y-91179160D01*
X162045419Y-91179160D02*
X161997800Y-91226779D01*
X161997800Y-91226779D02*
X161950180Y-91322017D01*
X161950180Y-91322017D02*
X161950180Y-91512493D01*
X161950180Y-91512493D02*
X161997800Y-91607731D01*
X161997800Y-91607731D02*
X162045419Y-91655350D01*
X162045419Y-91655350D02*
X162140657Y-91702969D01*
X162140657Y-91702969D02*
X162950180Y-91702969D01*
X162950180Y-92036303D02*
X162950180Y-92607731D01*
X161950180Y-92322017D02*
X162950180Y-92322017D01*
X162331133Y-92941065D02*
X162331133Y-93702970D01*
X162880180Y-96103922D02*
X161880180Y-96437255D01*
X161880180Y-96437255D02*
X162880180Y-96770588D01*
X162880180Y-97294398D02*
X162880180Y-97484874D01*
X162880180Y-97484874D02*
X162832561Y-97580112D01*
X162832561Y-97580112D02*
X162737323Y-97675350D01*
X162737323Y-97675350D02*
X162546847Y-97722969D01*
X162546847Y-97722969D02*
X162213514Y-97722969D01*
X162213514Y-97722969D02*
X162023038Y-97675350D01*
X162023038Y-97675350D02*
X161927800Y-97580112D01*
X161927800Y-97580112D02*
X161880180Y-97484874D01*
X161880180Y-97484874D02*
X161880180Y-97294398D01*
X161880180Y-97294398D02*
X161927800Y-97199160D01*
X161927800Y-97199160D02*
X162023038Y-97103922D01*
X162023038Y-97103922D02*
X162213514Y-97056303D01*
X162213514Y-97056303D02*
X162546847Y-97056303D01*
X162546847Y-97056303D02*
X162737323Y-97103922D01*
X162737323Y-97103922D02*
X162832561Y-97199160D01*
X162832561Y-97199160D02*
X162880180Y-97294398D01*
X162880180Y-98151541D02*
X162070657Y-98151541D01*
X162070657Y-98151541D02*
X161975419Y-98199160D01*
X161975419Y-98199160D02*
X161927800Y-98246779D01*
X161927800Y-98246779D02*
X161880180Y-98342017D01*
X161880180Y-98342017D02*
X161880180Y-98532493D01*
X161880180Y-98532493D02*
X161927800Y-98627731D01*
X161927800Y-98627731D02*
X161975419Y-98675350D01*
X161975419Y-98675350D02*
X162070657Y-98722969D01*
X162070657Y-98722969D02*
X162880180Y-98722969D01*
X162880180Y-99056303D02*
X162880180Y-99627731D01*
X161880180Y-99342017D02*
X162880180Y-99342017D01*
X162261133Y-99961065D02*
X162261133Y-100722970D01*
X161880180Y-100342017D02*
X162642085Y-100342017D01*
X128559580Y-115046666D02*
X128607200Y-115094285D01*
X128607200Y-115094285D02*
X128654819Y-115237142D01*
X128654819Y-115237142D02*
X128654819Y-115332380D01*
X128654819Y-115332380D02*
X128607200Y-115475237D01*
X128607200Y-115475237D02*
X128511961Y-115570475D01*
X128511961Y-115570475D02*
X128416723Y-115618094D01*
X128416723Y-115618094D02*
X128226247Y-115665713D01*
X128226247Y-115665713D02*
X128083390Y-115665713D01*
X128083390Y-115665713D02*
X127892914Y-115618094D01*
X127892914Y-115618094D02*
X127797676Y-115570475D01*
X127797676Y-115570475D02*
X127702438Y-115475237D01*
X127702438Y-115475237D02*
X127654819Y-115332380D01*
X127654819Y-115332380D02*
X127654819Y-115237142D01*
X127654819Y-115237142D02*
X127702438Y-115094285D01*
X127702438Y-115094285D02*
X127750057Y-115046666D01*
X128654819Y-114094285D02*
X128654819Y-114665713D01*
X128654819Y-114379999D02*
X127654819Y-114379999D01*
X127654819Y-114379999D02*
X127797676Y-114475237D01*
X127797676Y-114475237D02*
X127892914Y-114570475D01*
X127892914Y-114570475D02*
X127940533Y-114665713D01*
X153104819Y-77316666D02*
X152628628Y-77649999D01*
X153104819Y-77888094D02*
X152104819Y-77888094D01*
X152104819Y-77888094D02*
X152104819Y-77507142D01*
X152104819Y-77507142D02*
X152152438Y-77411904D01*
X152152438Y-77411904D02*
X152200057Y-77364285D01*
X152200057Y-77364285D02*
X152295295Y-77316666D01*
X152295295Y-77316666D02*
X152438152Y-77316666D01*
X152438152Y-77316666D02*
X152533390Y-77364285D01*
X152533390Y-77364285D02*
X152581009Y-77411904D01*
X152581009Y-77411904D02*
X152628628Y-77507142D01*
X152628628Y-77507142D02*
X152628628Y-77888094D01*
X152200057Y-76935713D02*
X152152438Y-76888094D01*
X152152438Y-76888094D02*
X152104819Y-76792856D01*
X152104819Y-76792856D02*
X152104819Y-76554761D01*
X152104819Y-76554761D02*
X152152438Y-76459523D01*
X152152438Y-76459523D02*
X152200057Y-76411904D01*
X152200057Y-76411904D02*
X152295295Y-76364285D01*
X152295295Y-76364285D02*
X152390533Y-76364285D01*
X152390533Y-76364285D02*
X152533390Y-76411904D01*
X152533390Y-76411904D02*
X153104819Y-76983332D01*
X153104819Y-76983332D02*
X153104819Y-76364285D01*
X157234819Y-110046666D02*
X156758628Y-110379999D01*
X157234819Y-110618094D02*
X156234819Y-110618094D01*
X156234819Y-110618094D02*
X156234819Y-110237142D01*
X156234819Y-110237142D02*
X156282438Y-110141904D01*
X156282438Y-110141904D02*
X156330057Y-110094285D01*
X156330057Y-110094285D02*
X156425295Y-110046666D01*
X156425295Y-110046666D02*
X156568152Y-110046666D01*
X156568152Y-110046666D02*
X156663390Y-110094285D01*
X156663390Y-110094285D02*
X156711009Y-110141904D01*
X156711009Y-110141904D02*
X156758628Y-110237142D01*
X156758628Y-110237142D02*
X156758628Y-110618094D01*
X157234819Y-109094285D02*
X157234819Y-109665713D01*
X157234819Y-109379999D02*
X156234819Y-109379999D01*
X156234819Y-109379999D02*
X156377676Y-109475237D01*
X156377676Y-109475237D02*
X156472914Y-109570475D01*
X156472914Y-109570475D02*
X156520533Y-109665713D01*
D12*
X143261904Y-132622580D02*
X143261904Y-131813057D01*
X143261904Y-131813057D02*
X143214285Y-131717819D01*
X143214285Y-131717819D02*
X143166666Y-131670200D01*
X143166666Y-131670200D02*
X143071428Y-131622580D01*
X143071428Y-131622580D02*
X142880952Y-131622580D01*
X142880952Y-131622580D02*
X142785714Y-131670200D01*
X142785714Y-131670200D02*
X142738095Y-131717819D01*
X142738095Y-131717819D02*
X142690476Y-131813057D01*
X142690476Y-131813057D02*
X142690476Y-132622580D01*
X141690476Y-131622580D02*
X142261904Y-131622580D01*
X141976190Y-131622580D02*
X141976190Y-132622580D01*
X141976190Y-132622580D02*
X142071428Y-132479723D01*
X142071428Y-132479723D02*
X142166666Y-132384485D01*
X142166666Y-132384485D02*
X142261904Y-132336866D01*
D13*
X155730000Y-73310000D02*
X155730000Y-81050000D01*
X155730000Y-81050000D02*
X161030000Y-81050000D01*
X157380000Y-73310000D02*
X155730000Y-73310000D01*
X161030000Y-73310000D02*
X159380000Y-73310000D01*
X161030000Y-81050000D02*
X161030000Y-73310000D01*
X159380000Y-73310000D02*
G75*
G02*
X157380000Y-73310000I-1000000J0D01*
G01*
X141550000Y-71950000D02*
X146191000Y-71950000D01*
X141550000Y-75219000D02*
X143060000Y-75219000D01*
X141550000Y-78920000D02*
X143060000Y-78920000D01*
X141550000Y-82190000D02*
X141550000Y-71950000D01*
X141550000Y-82190000D02*
X146191000Y-82190000D01*
X143060000Y-82190000D02*
X143060000Y-71950000D01*
X146191000Y-82190000D02*
X146191000Y-71950000D01*
X124024000Y-86422000D02*
X124024000Y-101422000D01*
X124024000Y-101422000D02*
X125024000Y-102422000D01*
X125024000Y-85422000D02*
X124024000Y-86422000D01*
X160024000Y-85422000D02*
X125024000Y-85422000D01*
X160024000Y-102422000D02*
X125024000Y-102422000D01*
X161024000Y-86422000D02*
X160024000Y-85422000D01*
X161024000Y-86422000D02*
X161024000Y-101422000D01*
X161024000Y-101422000D02*
X160024000Y-102422000D01*
X128054000Y-90374000D02*
G75*
G02*
X126214000Y-90374000I-920000J0D01*
G01*
X126214000Y-90374000D02*
G75*
G02*
X128054000Y-90374000I920000J0D01*
G01*
X128054000Y-97232000D02*
G75*
G02*
X126214000Y-97232000I-920000J0D01*
G01*
X126214000Y-97232000D02*
G75*
G02*
X128054000Y-97232000I920000J0D01*
G01*
X158788000Y-90374000D02*
G75*
G02*
X156948000Y-90374000I-920000J0D01*
G01*
X156948000Y-90374000D02*
G75*
G02*
X158788000Y-90374000I920000J0D01*
G01*
X158788000Y-97232000D02*
G75*
G02*
X156948000Y-97232000I-920000J0D01*
G01*
X156948000Y-97232000D02*
G75*
G02*
X158788000Y-97232000I920000J0D01*
G01*
X121960000Y-109260000D02*
X121960000Y-111060000D01*
X121960000Y-111060000D02*
X122860000Y-111960000D01*
X121960000Y-112860000D02*
X121960000Y-120500000D01*
X122860000Y-111960000D02*
X121960000Y-112860000D01*
X124580000Y-107320000D02*
X124580000Y-109260000D01*
X124580000Y-122440000D02*
X124580000Y-120500000D01*
X126300000Y-111960000D02*
X127200000Y-112860000D01*
X127180000Y-107160000D02*
X127180000Y-108960000D01*
X127200000Y-109260000D02*
X121960000Y-109260000D01*
X127200000Y-109260000D02*
X127200000Y-111060000D01*
X127200000Y-111060000D02*
X126300000Y-111960000D01*
X127200000Y-112860000D02*
X127200000Y-120500000D01*
X127200000Y-120500000D02*
X121960000Y-120500000D01*
X128080000Y-108060000D02*
X126280000Y-108060000D01*
X149810000Y-75230000D02*
X149810000Y-79070000D01*
X149810000Y-79070000D02*
X151650000Y-79070000D01*
X150730000Y-74280000D02*
X150730000Y-75230000D01*
X150730000Y-80020000D02*
X150730000Y-79070000D01*
X151650000Y-75230000D02*
X149810000Y-75230000D01*
X151650000Y-79070000D02*
X151650000Y-75230000D01*
X157780000Y-107960000D02*
X157780000Y-111800000D01*
X157780000Y-111800000D02*
X159620000Y-111800000D01*
X158700000Y-107010000D02*
X158700000Y-107960000D01*
X158700000Y-112750000D02*
X158700000Y-111800000D01*
X159620000Y-107960000D02*
X157780000Y-107960000D01*
X159620000Y-111800000D02*
X159620000Y-107960000D01*
D14*
X131700000Y-104430000D02*
X153300000Y-104430000D01*
X131700000Y-130730000D02*
X131700000Y-104430000D01*
X153300000Y-104430000D02*
X153300000Y-130730000D01*
X153300000Y-130730000D02*
X131700000Y-130730000D01*
%LPC*%
D12*
X156985000Y-68620000D02*
X128410000Y-68620000D01*
X128410000Y-57190000D01*
X156985000Y-57190000D01*
X156985000Y-68620000D01*
G36*
X156985000Y-68620000D02*
G01*
X128410000Y-68620000D01*
X128410000Y-57190000D01*
X156985000Y-57190000D01*
X156985000Y-68620000D01*
G37*
D15*
X154570000Y-74640000D03*
D16*
X154570000Y-77180000D03*
X154570000Y-79720000D03*
X162190000Y-79720000D03*
X162190000Y-77180000D03*
X162190000Y-74640000D03*
D17*
X144820000Y-79610000D03*
D18*
X144820000Y-77070000D03*
X144820000Y-74530000D03*
D19*
X157790000Y-117910000D03*
D20*
X157868000Y-97232000D03*
X157868000Y-90374000D03*
X127134000Y-90374000D03*
X127134000Y-97232000D03*
D21*
X124580000Y-105880000D03*
D22*
X124580000Y-123880000D03*
D19*
X129420000Y-117900000D03*
D20*
X150730000Y-73340000D03*
D23*
X150730000Y-80960000D03*
D20*
X158700000Y-113690000D03*
D23*
X158700000Y-106070000D03*
D24*
X151800000Y-125950000D03*
D25*
X151800000Y-123410000D03*
X151800000Y-120870000D03*
D26*
X151800000Y-118330000D03*
X151800000Y-115790000D03*
X151800000Y-113250000D03*
X151800000Y-110710000D03*
X151800000Y-108170000D03*
X151800000Y-105630000D03*
X148850000Y-105930000D03*
X146310000Y-105930000D03*
X143770000Y-105930000D03*
X141230000Y-105930000D03*
X138690000Y-105930000D03*
X136150000Y-105930000D03*
X133200000Y-105630000D03*
X133200000Y-108170000D03*
X133200000Y-110710000D03*
X133200000Y-113250000D03*
X133200000Y-115790000D03*
X133200000Y-118330000D03*
D25*
X133200000Y-120870000D03*
X133200000Y-123410000D03*
X133200000Y-125950000D03*
%LPD*%
M02*
