G04 #@! TF.GenerationSoftware,KiCad,Pcbnew,8.0.9-8.0.9-0~ubuntu22.04.1*
G04 #@! TF.CreationDate,2025-09-14T16:49:04-04:00*
G04 #@! TF.ProjectId,TapeMate64,54617065-4d61-4746-9536-342e6b696361,rev?*
G04 #@! TF.SameCoordinates,Original*
G04 #@! TF.FileFunction,Copper,L2,Bot*
G04 #@! TF.FilePolarity,Positive*
%FSLAX46Y46*%
G04 Gerber Fmt 4.6, Leading zero omitted, Abs format (unit mm)*
G04 Created by KiCad (PCBNEW 8.0.9-8.0.9-0~ubuntu22.04.1) date 2025-09-14 16:49:04*
%MOMM*%
%LPD*%
G01*
G04 APERTURE LIST*
G04 Aperture macros list*
%AMOutline5P*
0 Free polygon, 5 corners , with rotation*
0 The origin of the aperture is its center*
0 number of corners: always 5*
0 $1 to $10 corner X, Y*
0 $11 Rotation angle, in degrees counterclockwise*
0 create outline with 5 corners*
4,1,5,$1,$2,$3,$4,$5,$6,$7,$8,$9,$10,$1,$2,$11*%
%AMOutline6P*
0 Free polygon, 6 corners , with rotation*
0 The origin of the aperture is its center*
0 number of corners: always 6*
0 $1 to $12 corner X, Y*
0 $13 Rotation angle, in degrees counterclockwise*
0 create outline with 6 corners*
4,1,6,$1,$2,$3,$4,$5,$6,$7,$8,$9,$10,$11,$12,$1,$2,$13*%
%AMOutline7P*
0 Free polygon, 7 corners , with rotation*
0 The origin of the aperture is its center*
0 number of corners: always 7*
0 $1 to $14 corner X, Y*
0 $15 Rotation angle, in degrees counterclockwise*
0 create outline with 7 corners*
4,1,7,$1,$2,$3,$4,$5,$6,$7,$8,$9,$10,$11,$12,$13,$14,$1,$2,$15*%
%AMOutline8P*
0 Free polygon, 8 corners , with rotation*
0 The origin of the aperture is its center*
0 number of corners: always 8*
0 $1 to $16 corner X, Y*
0 $17 Rotation angle, in degrees counterclockwise*
0 create outline with 8 corners*
4,1,8,$1,$2,$3,$4,$5,$6,$7,$8,$9,$10,$11,$12,$13,$14,$15,$16,$1,$2,$17*%
G04 Aperture macros list end*
G04 #@! TA.AperFunction,ComponentPad*
%ADD10R,1.600000X1.600000*%
G04 #@! TD*
G04 #@! TA.AperFunction,ComponentPad*
%ADD11O,1.600000X1.600000*%
G04 #@! TD*
G04 #@! TA.AperFunction,ComponentPad*
%ADD12R,2.000000X1.905000*%
G04 #@! TD*
G04 #@! TA.AperFunction,ComponentPad*
%ADD13O,2.000000X1.905000*%
G04 #@! TD*
G04 #@! TA.AperFunction,ComponentPad*
%ADD14C,1.400000*%
G04 #@! TD*
G04 #@! TA.AperFunction,ComponentPad*
%ADD15R,2.400000X2.400000*%
G04 #@! TD*
G04 #@! TA.AperFunction,ComponentPad*
%ADD16O,2.400000X2.400000*%
G04 #@! TD*
G04 #@! TA.AperFunction,ComponentPad*
%ADD17O,1.400000X1.400000*%
G04 #@! TD*
G04 #@! TA.AperFunction,ComponentPad*
%ADD18R,1.700000X1.700000*%
G04 #@! TD*
G04 #@! TA.AperFunction,ComponentPad*
%ADD19C,1.700000*%
G04 #@! TD*
G04 #@! TA.AperFunction,SMDPad,CuDef*
%ADD20R,2.410000X10.000000*%
G04 #@! TD*
G04 #@! TA.AperFunction,SMDPad,CuDef*
%ADD21Outline5P,-1.205000X5.000000X1.205000X5.000000X1.205000X-5.000000X-0.361500X-5.000000X-1.205000X-4.156500X180.000000*%
G04 #@! TD*
G04 #@! TA.AperFunction,SMDPad,CuDef*
%ADD22Outline5P,-1.205000X5.000000X1.205000X5.000000X1.205000X-4.156500X0.361500X-5.000000X-1.205000X-5.000000X180.000000*%
G04 #@! TD*
G04 #@! TA.AperFunction,ViaPad*
%ADD23C,0.600000*%
G04 #@! TD*
G04 #@! TA.AperFunction,Conductor*
%ADD24C,0.200000*%
G04 #@! TD*
G04 #@! TA.AperFunction,Conductor*
%ADD25C,1.000000*%
G04 #@! TD*
G04 APERTURE END LIST*
D10*
X154570000Y-74640000D03*
D11*
X154570000Y-77180000D03*
X154570000Y-79720000D03*
X162190000Y-79720000D03*
X162190000Y-77180000D03*
X162190000Y-74640000D03*
D12*
X144820000Y-79610000D03*
D13*
X144820000Y-77070000D03*
X144820000Y-74530000D03*
D14*
X157868000Y-97232000D03*
X157868000Y-90374000D03*
X127134000Y-90374000D03*
X127134000Y-97232000D03*
D15*
X124580000Y-105880000D03*
D16*
X124580000Y-123880000D03*
D14*
X150730000Y-73340000D03*
D17*
X150730000Y-80960000D03*
D14*
X158700000Y-113690000D03*
D17*
X158700000Y-106070000D03*
D18*
X151800000Y-125950000D03*
D19*
X151800000Y-123410000D03*
X151800000Y-120870000D03*
X151800000Y-118330000D03*
X151800000Y-115790000D03*
X151800000Y-113250000D03*
X151800000Y-110710000D03*
X151800000Y-108170000D03*
X151800000Y-105630000D03*
X148850000Y-105930000D03*
X146310000Y-105930000D03*
X143770000Y-105930000D03*
X141230000Y-105930000D03*
X138690000Y-105930000D03*
X136150000Y-105930000D03*
X133200000Y-105630000D03*
X133200000Y-108170000D03*
X133200000Y-110710000D03*
X133200000Y-113250000D03*
X133200000Y-115790000D03*
X133200000Y-118330000D03*
X133200000Y-120870000D03*
X133200000Y-123410000D03*
X133200000Y-125950000D03*
D20*
X132740000Y-63540000D03*
D21*
X136700000Y-63540000D03*
D22*
X140660000Y-63540000D03*
D20*
X144620000Y-63540000D03*
X148580000Y-63540000D03*
X152540000Y-63540000D03*
D23*
X147700000Y-111690000D03*
X136700000Y-74680000D03*
X140830000Y-71180000D03*
X126600000Y-73180000D03*
X158495000Y-75455000D03*
X148570000Y-73580000D03*
D24*
X147700000Y-111690000D02*
X147700000Y-90140000D01*
X147700000Y-90140000D02*
X151810000Y-86030000D01*
X151810000Y-86030000D02*
X151810000Y-72290000D01*
X151810000Y-72290000D02*
X148580000Y-69060000D01*
X148580000Y-69060000D02*
X148580000Y-63540000D01*
D25*
X132740000Y-63540000D02*
X132740000Y-71540000D01*
X136700000Y-63540000D02*
X136700000Y-74680000D01*
X140830000Y-71090000D02*
X140830000Y-63710000D01*
D24*
X150730000Y-80960000D02*
X146170000Y-80960000D01*
X146170000Y-80960000D02*
X144820000Y-79610000D01*
X152540000Y-69500000D02*
X152540000Y-63540000D01*
X158495000Y-75455000D02*
X152540000Y-69500000D01*
X144620000Y-63540000D02*
X144620000Y-69630000D01*
X144620000Y-69630000D02*
X148570000Y-73580000D01*
G04 #@! TA.AperFunction,Conductor*
G36*
X127197039Y-72155685D02*
G01*
X127242794Y-72208489D01*
X127254000Y-72260000D01*
X127254000Y-74298000D01*
X127234315Y-74365039D01*
X127181511Y-74410794D01*
X127130000Y-74422000D01*
X119613905Y-74422000D01*
X119546866Y-74402315D01*
X119501111Y-74349511D01*
X119489905Y-74297989D01*
X119490120Y-72259986D01*
X119509812Y-72192950D01*
X119562620Y-72147200D01*
X119614120Y-72136000D01*
X127130000Y-72136000D01*
X127197039Y-72155685D01*
G37*
G04 #@! TD.AperFunction*
G04 #@! TA.AperFunction,Conductor*
G36*
X127254000Y-77724000D02*
G01*
X119489545Y-77724000D01*
X119489786Y-75438000D01*
X127254000Y-75438000D01*
X127254000Y-77724000D01*
G37*
G04 #@! TD.AperFunction*
G04 #@! TA.AperFunction,Conductor*
G36*
X135642539Y-69107685D02*
G01*
X135688294Y-69160489D01*
X135699500Y-69212000D01*
X135699500Y-74778541D01*
X135699500Y-74778543D01*
X135699499Y-74778543D01*
X135737947Y-74971829D01*
X135737950Y-74971839D01*
X135813364Y-75153907D01*
X135813371Y-75153920D01*
X135922860Y-75317781D01*
X135922863Y-75317785D01*
X136062214Y-75457136D01*
X136062218Y-75457139D01*
X136226079Y-75566628D01*
X136226092Y-75566635D01*
X136399075Y-75638286D01*
X136408165Y-75642051D01*
X136408169Y-75642051D01*
X136408170Y-75642052D01*
X136601456Y-75680500D01*
X136601459Y-75680500D01*
X136798543Y-75680500D01*
X136928582Y-75654632D01*
X136991835Y-75642051D01*
X137173914Y-75566632D01*
X137337782Y-75457139D01*
X137477139Y-75317782D01*
X137586632Y-75153914D01*
X137662051Y-74971835D01*
X137682259Y-74870245D01*
X137700500Y-74778543D01*
X137700500Y-69212000D01*
X137720185Y-69144961D01*
X137772989Y-69099206D01*
X137824500Y-69088000D01*
X139705500Y-69088000D01*
X139772539Y-69107685D01*
X139818294Y-69160489D01*
X139829500Y-69212000D01*
X139829500Y-71188541D01*
X139829500Y-71188543D01*
X139829499Y-71188543D01*
X139867947Y-71381829D01*
X139867950Y-71381839D01*
X139943364Y-71563907D01*
X139943371Y-71563920D01*
X140052860Y-71727781D01*
X140052863Y-71727785D01*
X140192214Y-71867136D01*
X140192218Y-71867139D01*
X140356079Y-71976628D01*
X140356092Y-71976635D01*
X140422926Y-72004318D01*
X140538165Y-72052051D01*
X140538169Y-72052051D01*
X140538170Y-72052052D01*
X140731456Y-72090500D01*
X140731459Y-72090500D01*
X140928543Y-72090500D01*
X141058582Y-72064632D01*
X141121835Y-72052051D01*
X141303914Y-71976632D01*
X141467782Y-71867139D01*
X141607139Y-71727782D01*
X141716632Y-71563914D01*
X141792051Y-71381835D01*
X141830500Y-71188541D01*
X141830500Y-69212000D01*
X141850185Y-69144961D01*
X141902989Y-69099206D01*
X141954500Y-69088000D01*
X143895500Y-69088000D01*
X143962539Y-69107685D01*
X144008294Y-69160489D01*
X144019500Y-69212000D01*
X144019500Y-69543330D01*
X144019499Y-69543348D01*
X144019499Y-69709054D01*
X144019498Y-69709054D01*
X144060422Y-69861782D01*
X144060424Y-69861787D01*
X144064426Y-69868718D01*
X144064427Y-69868720D01*
X144139477Y-69998712D01*
X144139481Y-69998717D01*
X144258349Y-70117585D01*
X144258355Y-70117590D01*
X147739298Y-73598534D01*
X147772783Y-73659857D01*
X147774837Y-73672331D01*
X147784630Y-73759249D01*
X147844210Y-73929521D01*
X147940184Y-74082262D01*
X148067738Y-74209816D01*
X148158080Y-74266582D01*
X148214646Y-74302125D01*
X148220478Y-74305789D01*
X148390745Y-74365368D01*
X148390750Y-74365369D01*
X148569996Y-74385565D01*
X148570000Y-74385565D01*
X148570004Y-74385565D01*
X148749249Y-74365369D01*
X148749252Y-74365368D01*
X148749255Y-74365368D01*
X148919522Y-74305789D01*
X149072262Y-74209816D01*
X149199816Y-74082262D01*
X149295789Y-73929522D01*
X149355368Y-73759255D01*
X149355369Y-73759249D01*
X149356917Y-73752468D01*
X149359830Y-73753132D01*
X149381690Y-73701002D01*
X149439255Y-73661403D01*
X149509090Y-73659213D01*
X149569024Y-73695127D01*
X149597167Y-73745290D01*
X149603760Y-73768461D01*
X149605771Y-73775527D01*
X149605775Y-73775538D01*
X149704938Y-73974683D01*
X149704943Y-73974691D01*
X149839020Y-74152238D01*
X150003437Y-74302123D01*
X150003439Y-74302125D01*
X150192595Y-74419245D01*
X150192596Y-74419245D01*
X150192599Y-74419247D01*
X150400060Y-74499618D01*
X150618757Y-74540500D01*
X150618759Y-74540500D01*
X150841240Y-74540500D01*
X150841243Y-74540500D01*
X151059940Y-74499618D01*
X151059947Y-74499615D01*
X151062714Y-74499098D01*
X151132229Y-74506129D01*
X151186908Y-74549626D01*
X151209391Y-74615780D01*
X151209500Y-74620987D01*
X151209500Y-79679012D01*
X151189815Y-79746051D01*
X151137011Y-79791806D01*
X151067853Y-79801750D01*
X151062715Y-79800901D01*
X151059941Y-79800382D01*
X151059940Y-79800382D01*
X150841243Y-79759500D01*
X150618757Y-79759500D01*
X150400060Y-79800382D01*
X150268864Y-79851207D01*
X150192601Y-79880752D01*
X150192595Y-79880754D01*
X150003439Y-79997874D01*
X150003437Y-79997876D01*
X149839020Y-80147761D01*
X149716333Y-80310227D01*
X149660224Y-80351863D01*
X149617379Y-80359500D01*
X146470097Y-80359500D01*
X146403058Y-80339815D01*
X146382416Y-80323181D01*
X146356818Y-80297583D01*
X146323333Y-80236260D01*
X146320499Y-80209902D01*
X146320499Y-78609629D01*
X146320498Y-78609623D01*
X146320497Y-78609616D01*
X146314091Y-78550017D01*
X146302201Y-78518139D01*
X146263797Y-78415171D01*
X146263793Y-78415164D01*
X146177547Y-78299955D01*
X146177544Y-78299952D01*
X146062335Y-78213706D01*
X146062328Y-78213702D01*
X146034459Y-78203308D01*
X145978525Y-78161437D01*
X145954108Y-78095973D01*
X145968960Y-78027700D01*
X145977460Y-78014260D01*
X146110217Y-77831538D01*
X146214048Y-77627758D01*
X146214516Y-77626317D01*
X146284721Y-77410249D01*
X146284721Y-77410248D01*
X146284722Y-77410245D01*
X146320500Y-77184354D01*
X146320500Y-76955646D01*
X146284722Y-76729755D01*
X146284721Y-76729751D01*
X146284721Y-76729750D01*
X146214049Y-76512244D01*
X146126725Y-76340861D01*
X146110217Y-76308462D01*
X145975786Y-76123434D01*
X145814066Y-75961714D01*
X145729559Y-75900316D01*
X145686896Y-75844988D01*
X145680917Y-75775375D01*
X145713523Y-75713580D01*
X145729556Y-75699685D01*
X145814066Y-75638286D01*
X145975786Y-75476566D01*
X146110217Y-75291538D01*
X146214048Y-75087758D01*
X146251714Y-74971835D01*
X146284721Y-74870249D01*
X146284721Y-74870248D01*
X146284722Y-74870245D01*
X146320500Y-74644354D01*
X146320500Y-74415646D01*
X146284722Y-74189755D01*
X146284721Y-74189751D01*
X146284721Y-74189750D01*
X146214049Y-73972244D01*
X146214048Y-73972242D01*
X146110217Y-73768462D01*
X145975786Y-73583434D01*
X145814066Y-73421714D01*
X145629038Y-73287283D01*
X145573204Y-73258834D01*
X145425255Y-73183450D01*
X145207748Y-73112778D01*
X144986513Y-73077738D01*
X144981854Y-73077000D01*
X144658146Y-73077000D01*
X144653487Y-73077738D01*
X144432253Y-73112778D01*
X144432250Y-73112778D01*
X144214744Y-73183450D01*
X144010961Y-73287283D01*
X143939090Y-73339501D01*
X143825934Y-73421714D01*
X143825932Y-73421716D01*
X143825931Y-73421716D01*
X143664216Y-73583431D01*
X143664216Y-73583432D01*
X143664214Y-73583434D01*
X143623150Y-73639954D01*
X143529783Y-73768461D01*
X143425950Y-73972244D01*
X143355278Y-74189750D01*
X143355278Y-74189753D01*
X143319500Y-74415646D01*
X143319500Y-74644353D01*
X143355278Y-74870246D01*
X143355278Y-74870249D01*
X143425950Y-75087755D01*
X143459660Y-75153914D01*
X143529783Y-75291538D01*
X143664214Y-75476566D01*
X143825934Y-75638286D01*
X143886557Y-75682331D01*
X143910438Y-75699682D01*
X143953103Y-75755013D01*
X143959082Y-75824626D01*
X143926476Y-75886421D01*
X143910438Y-75900318D01*
X143825932Y-75961715D01*
X143664216Y-76123431D01*
X143664216Y-76123432D01*
X143664214Y-76123434D01*
X143623150Y-76179954D01*
X143529783Y-76308461D01*
X143425950Y-76512244D01*
X143355278Y-76729750D01*
X143355278Y-76729753D01*
X143319500Y-76955646D01*
X143319500Y-77184353D01*
X143355278Y-77410246D01*
X143355278Y-77410249D01*
X143425950Y-77627755D01*
X143425952Y-77627758D01*
X143529783Y-77831538D01*
X143662525Y-78014242D01*
X143686005Y-78080046D01*
X143670180Y-78148100D01*
X143620074Y-78196795D01*
X143605541Y-78203308D01*
X143577670Y-78213703D01*
X143577664Y-78213706D01*
X143462455Y-78299952D01*
X143462452Y-78299955D01*
X143376206Y-78415164D01*
X143376202Y-78415171D01*
X143325908Y-78550017D01*
X143319501Y-78609616D01*
X143319501Y-78609623D01*
X143319500Y-78609635D01*
X143319500Y-80610370D01*
X143319501Y-80610376D01*
X143325908Y-80669983D01*
X143376202Y-80804828D01*
X143376206Y-80804835D01*
X143462452Y-80920044D01*
X143462455Y-80920047D01*
X143577664Y-81006293D01*
X143577671Y-81006297D01*
X143712517Y-81056591D01*
X143712516Y-81056591D01*
X143719444Y-81057335D01*
X143772127Y-81063000D01*
X145372402Y-81062999D01*
X145439441Y-81082684D01*
X145460083Y-81099318D01*
X145685139Y-81324374D01*
X145685149Y-81324385D01*
X145689479Y-81328715D01*
X145689480Y-81328716D01*
X145801284Y-81440520D01*
X145888095Y-81490639D01*
X145888097Y-81490641D01*
X145938213Y-81519576D01*
X145938215Y-81519577D01*
X146090942Y-81560500D01*
X146090943Y-81560500D01*
X149617379Y-81560500D01*
X149684418Y-81580185D01*
X149716333Y-81609773D01*
X149839020Y-81772238D01*
X150003437Y-81922123D01*
X150003439Y-81922125D01*
X150192595Y-82039245D01*
X150192596Y-82039245D01*
X150192599Y-82039247D01*
X150400060Y-82119618D01*
X150618757Y-82160500D01*
X150618759Y-82160500D01*
X150841240Y-82160500D01*
X150841243Y-82160500D01*
X151059940Y-82119618D01*
X151059947Y-82119615D01*
X151062714Y-82119098D01*
X151132229Y-82126129D01*
X151186908Y-82169626D01*
X151209391Y-82235780D01*
X151209500Y-82240987D01*
X151209500Y-85729902D01*
X151189815Y-85796941D01*
X151173181Y-85817583D01*
X147219481Y-89771282D01*
X147219479Y-89771285D01*
X147169361Y-89858094D01*
X147169359Y-89858096D01*
X147140425Y-89908209D01*
X147140424Y-89908210D01*
X147140423Y-89908215D01*
X147099499Y-90060943D01*
X147099499Y-90060945D01*
X147099499Y-90229046D01*
X147099500Y-90229059D01*
X147099500Y-104613396D01*
X147079815Y-104680435D01*
X147027011Y-104726190D01*
X146957853Y-104736134D01*
X146923096Y-104725778D01*
X146773669Y-104656099D01*
X146773655Y-104656094D01*
X146545413Y-104594938D01*
X146545403Y-104594936D01*
X146310001Y-104574341D01*
X146309999Y-104574341D01*
X146074596Y-104594936D01*
X146074586Y-104594938D01*
X145846344Y-104656094D01*
X145846335Y-104656098D01*
X145632171Y-104755964D01*
X145632169Y-104755965D01*
X145438597Y-104891505D01*
X145271505Y-105058597D01*
X145141575Y-105244158D01*
X145086998Y-105287783D01*
X145017500Y-105294977D01*
X144955145Y-105263454D01*
X144938425Y-105244158D01*
X144808494Y-105058597D01*
X144641402Y-104891506D01*
X144641395Y-104891501D01*
X144447834Y-104755967D01*
X144447830Y-104755965D01*
X144383094Y-104725778D01*
X144233663Y-104656097D01*
X144233659Y-104656096D01*
X144233655Y-104656094D01*
X144005413Y-104594938D01*
X144005403Y-104594936D01*
X143770001Y-104574341D01*
X143769999Y-104574341D01*
X143534596Y-104594936D01*
X143534586Y-104594938D01*
X143306344Y-104656094D01*
X143306335Y-104656098D01*
X143092171Y-104755964D01*
X143092169Y-104755965D01*
X142898597Y-104891505D01*
X142731505Y-105058597D01*
X142601575Y-105244158D01*
X142546998Y-105287783D01*
X142477500Y-105294977D01*
X142415145Y-105263454D01*
X142398425Y-105244158D01*
X142268494Y-105058597D01*
X142101402Y-104891506D01*
X142101395Y-104891501D01*
X141907834Y-104755967D01*
X141907830Y-104755965D01*
X141843094Y-104725778D01*
X141693663Y-104656097D01*
X141693659Y-104656096D01*
X141693655Y-104656094D01*
X141465413Y-104594938D01*
X141465403Y-104594936D01*
X141230001Y-104574341D01*
X141229999Y-104574341D01*
X140994596Y-104594936D01*
X140994586Y-104594938D01*
X140766344Y-104656094D01*
X140766335Y-104656098D01*
X140552171Y-104755964D01*
X140552169Y-104755965D01*
X140358597Y-104891505D01*
X140191505Y-105058597D01*
X140061575Y-105244158D01*
X140006998Y-105287783D01*
X139937500Y-105294977D01*
X139875145Y-105263454D01*
X139858425Y-105244158D01*
X139728494Y-105058597D01*
X139561402Y-104891506D01*
X139561395Y-104891501D01*
X139367834Y-104755967D01*
X139367830Y-104755965D01*
X139303094Y-104725778D01*
X139153663Y-104656097D01*
X139153659Y-104656096D01*
X139153655Y-104656094D01*
X138925413Y-104594938D01*
X138925403Y-104594936D01*
X138690001Y-104574341D01*
X138689999Y-104574341D01*
X138454596Y-104594936D01*
X138454586Y-104594938D01*
X138226344Y-104656094D01*
X138226335Y-104656098D01*
X138012171Y-104755964D01*
X138012169Y-104755965D01*
X137818597Y-104891505D01*
X137651505Y-105058597D01*
X137521575Y-105244158D01*
X137466998Y-105287783D01*
X137397500Y-105294977D01*
X137335145Y-105263454D01*
X137318425Y-105244158D01*
X137188494Y-105058597D01*
X137021402Y-104891506D01*
X137021395Y-104891501D01*
X136827834Y-104755967D01*
X136827830Y-104755965D01*
X136763094Y-104725778D01*
X136613663Y-104656097D01*
X136613659Y-104656096D01*
X136613655Y-104656094D01*
X136385413Y-104594938D01*
X136385403Y-104594936D01*
X136150001Y-104574341D01*
X136149999Y-104574341D01*
X135914596Y-104594936D01*
X135914586Y-104594938D01*
X135686344Y-104656094D01*
X135686335Y-104656098D01*
X135472171Y-104755964D01*
X135472169Y-104755965D01*
X135278597Y-104891505D01*
X135111505Y-105058597D01*
X134975965Y-105252169D01*
X134975964Y-105252171D01*
X134876098Y-105466335D01*
X134876094Y-105466344D01*
X134814938Y-105694586D01*
X134814936Y-105694596D01*
X134794341Y-105929999D01*
X134794341Y-105930000D01*
X134814936Y-106165403D01*
X134814938Y-106165413D01*
X134876094Y-106393655D01*
X134876096Y-106393659D01*
X134876097Y-106393663D01*
X134956004Y-106565023D01*
X134975965Y-106607830D01*
X134975967Y-106607834D01*
X135018443Y-106668495D01*
X135111505Y-106801401D01*
X135278599Y-106968495D01*
X135325405Y-107001269D01*
X135472165Y-107104032D01*
X135472167Y-107104033D01*
X135472170Y-107104035D01*
X135686337Y-107203903D01*
X135914592Y-107265063D01*
X136102918Y-107281539D01*
X136149999Y-107285659D01*
X136150000Y-107285659D01*
X136150001Y-107285659D01*
X136189234Y-107282226D01*
X136385408Y-107265063D01*
X136613663Y-107203903D01*
X136827830Y-107104035D01*
X137021401Y-106968495D01*
X137188495Y-106801401D01*
X137318425Y-106615842D01*
X137373002Y-106572217D01*
X137442500Y-106565023D01*
X137504855Y-106596546D01*
X137521575Y-106615842D01*
X137651500Y-106801395D01*
X137651505Y-106801401D01*
X137818599Y-106968495D01*
X137865405Y-107001269D01*
X138012165Y-107104032D01*
X138012167Y-107104033D01*
X138012170Y-107104035D01*
X138226337Y-107203903D01*
X138454592Y-107265063D01*
X138642918Y-107281539D01*
X138689999Y-107285659D01*
X138690000Y-107285659D01*
X138690001Y-107285659D01*
X138729234Y-107282226D01*
X138925408Y-107265063D01*
X139153663Y-107203903D01*
X139367830Y-107104035D01*
X139561401Y-106968495D01*
X139728495Y-106801401D01*
X139858425Y-106615842D01*
X139913002Y-106572217D01*
X139982500Y-106565023D01*
X140044855Y-106596546D01*
X140061575Y-106615842D01*
X140191500Y-106801395D01*
X140191505Y-106801401D01*
X140358599Y-106968495D01*
X140405405Y-107001269D01*
X140552165Y-107104032D01*
X140552167Y-107104033D01*
X140552170Y-107104035D01*
X140766337Y-107203903D01*
X140994592Y-107265063D01*
X141182918Y-107281539D01*
X141229999Y-107285659D01*
X141230000Y-107285659D01*
X141230001Y-107285659D01*
X141269234Y-107282226D01*
X141465408Y-107265063D01*
X141693663Y-107203903D01*
X141907830Y-107104035D01*
X142101401Y-106968495D01*
X142268495Y-106801401D01*
X142398425Y-106615842D01*
X142453002Y-106572217D01*
X142522500Y-106565023D01*
X142584855Y-106596546D01*
X142601575Y-106615842D01*
X142731500Y-106801395D01*
X142731505Y-106801401D01*
X142898599Y-106968495D01*
X142945405Y-107001269D01*
X143092165Y-107104032D01*
X143092167Y-107104033D01*
X143092170Y-107104035D01*
X143306337Y-107203903D01*
X143534592Y-107265063D01*
X143722918Y-107281539D01*
X143769999Y-107285659D01*
X143770000Y-107285659D01*
X143770001Y-107285659D01*
X143809234Y-107282226D01*
X144005408Y-107265063D01*
X144233663Y-107203903D01*
X144447830Y-107104035D01*
X144641401Y-106968495D01*
X144808495Y-106801401D01*
X144938425Y-106615842D01*
X144993002Y-106572217D01*
X145062500Y-106565023D01*
X145124855Y-106596546D01*
X145141575Y-106615842D01*
X145271500Y-106801395D01*
X145271505Y-106801401D01*
X145438599Y-106968495D01*
X145485405Y-107001269D01*
X145632165Y-107104032D01*
X145632167Y-107104033D01*
X145632170Y-107104035D01*
X145846337Y-107203903D01*
X146074592Y-107265063D01*
X146262918Y-107281539D01*
X146309999Y-107285659D01*
X146310000Y-107285659D01*
X146310001Y-107285659D01*
X146349234Y-107282226D01*
X146545408Y-107265063D01*
X146773663Y-107203903D01*
X146923096Y-107134220D01*
X146992172Y-107123729D01*
X147055956Y-107152249D01*
X147094196Y-107210725D01*
X147099500Y-107246603D01*
X147099500Y-111107587D01*
X147079815Y-111174626D01*
X147072450Y-111184896D01*
X147070186Y-111187734D01*
X146974211Y-111340476D01*
X146914631Y-111510745D01*
X146914630Y-111510750D01*
X146894435Y-111689996D01*
X146894435Y-111690003D01*
X146914630Y-111869249D01*
X146914631Y-111869254D01*
X146974211Y-112039523D01*
X147070184Y-112192262D01*
X147197738Y-112319816D01*
X147288080Y-112376582D01*
X147291290Y-112378599D01*
X147350478Y-112415789D01*
X147520745Y-112475368D01*
X147520750Y-112475369D01*
X147699996Y-112495565D01*
X147700000Y-112495565D01*
X147700004Y-112495565D01*
X147879249Y-112475369D01*
X147879252Y-112475368D01*
X147879255Y-112475368D01*
X148049522Y-112415789D01*
X148202262Y-112319816D01*
X148329816Y-112192262D01*
X148425789Y-112039522D01*
X148485368Y-111869255D01*
X148498974Y-111748498D01*
X148505565Y-111690003D01*
X148505565Y-111689996D01*
X148485369Y-111510750D01*
X148485368Y-111510745D01*
X148425789Y-111340478D01*
X148329816Y-111187738D01*
X148329814Y-111187736D01*
X148329813Y-111187734D01*
X148327550Y-111184896D01*
X148326659Y-111182715D01*
X148326111Y-111181842D01*
X148326264Y-111181745D01*
X148301144Y-111120209D01*
X148300500Y-111107587D01*
X148300500Y-107342503D01*
X148320185Y-107275464D01*
X148372989Y-107229709D01*
X148442147Y-107219765D01*
X148456593Y-107222728D01*
X148482647Y-107229709D01*
X148614592Y-107265063D01*
X148802918Y-107281539D01*
X148849999Y-107285659D01*
X148850000Y-107285659D01*
X148850001Y-107285659D01*
X148889234Y-107282226D01*
X149085408Y-107265063D01*
X149313663Y-107203903D01*
X149527830Y-107104035D01*
X149721401Y-106968495D01*
X149888495Y-106801401D01*
X150024035Y-106607830D01*
X150123903Y-106393663D01*
X150185063Y-106165408D01*
X150205659Y-105930000D01*
X150185063Y-105694592D01*
X150167756Y-105629999D01*
X150444341Y-105629999D01*
X150444341Y-105630000D01*
X150464936Y-105865403D01*
X150464938Y-105865413D01*
X150526094Y-106093655D01*
X150526096Y-106093659D01*
X150526097Y-106093663D01*
X150618367Y-106291536D01*
X150625965Y-106307830D01*
X150625967Y-106307834D01*
X150761501Y-106501395D01*
X150761506Y-106501402D01*
X150928597Y-106668493D01*
X150928603Y-106668498D01*
X151114158Y-106798425D01*
X151157783Y-106853002D01*
X151164977Y-106922500D01*
X151133454Y-106984855D01*
X151114158Y-107001575D01*
X150928597Y-107131505D01*
X150761505Y-107298597D01*
X150625965Y-107492169D01*
X150625964Y-107492171D01*
X150526098Y-107706335D01*
X150526094Y-107706344D01*
X150464938Y-107934586D01*
X150464936Y-107934596D01*
X150444341Y-108169999D01*
X150444341Y-108170000D01*
X150464936Y-108405403D01*
X150464938Y-108405413D01*
X150526094Y-108633655D01*
X150526096Y-108633659D01*
X150526097Y-108633663D01*
X150625965Y-108847830D01*
X150625967Y-108847834D01*
X150761501Y-109041395D01*
X150761506Y-109041402D01*
X150928597Y-109208493D01*
X150928603Y-109208498D01*
X151114158Y-109338425D01*
X151157783Y-109393002D01*
X151164977Y-109462500D01*
X151133454Y-109524855D01*
X151114158Y-109541575D01*
X150928597Y-109671505D01*
X150761505Y-109838597D01*
X150625965Y-110032169D01*
X150625964Y-110032171D01*
X150526098Y-110246335D01*
X150526094Y-110246344D01*
X150464938Y-110474586D01*
X150464936Y-110474596D01*
X150444341Y-110709999D01*
X150444341Y-110710000D01*
X150464936Y-110945403D01*
X150464938Y-110945413D01*
X150526094Y-111173655D01*
X150526096Y-111173659D01*
X150526097Y-111173663D01*
X150603884Y-111340478D01*
X150625965Y-111387830D01*
X150625967Y-111387834D01*
X150761501Y-111581395D01*
X150761506Y-111581402D01*
X150928597Y-111748493D01*
X150928603Y-111748498D01*
X151114158Y-111878425D01*
X151157783Y-111933002D01*
X151164977Y-112002500D01*
X151133454Y-112064855D01*
X151114158Y-112081575D01*
X150928597Y-112211505D01*
X150761505Y-112378597D01*
X150625965Y-112572169D01*
X150625964Y-112572171D01*
X150526098Y-112786335D01*
X150526094Y-112786344D01*
X150464938Y-113014586D01*
X150464936Y-113014596D01*
X150444341Y-113249999D01*
X150444341Y-113250000D01*
X150464936Y-113485403D01*
X150464938Y-113485413D01*
X150526094Y-113713655D01*
X150526096Y-113713659D01*
X150526097Y-113713663D01*
X150618367Y-113911536D01*
X150625965Y-113927830D01*
X150625967Y-113927834D01*
X150761501Y-114121395D01*
X150761506Y-114121402D01*
X150928597Y-114288493D01*
X150928603Y-114288498D01*
X151114158Y-114418425D01*
X151157783Y-114473002D01*
X151164977Y-114542500D01*
X151133454Y-114604855D01*
X151114158Y-114621575D01*
X150928597Y-114751505D01*
X150761505Y-114918597D01*
X150625965Y-115112169D01*
X150625964Y-115112171D01*
X150526098Y-115326335D01*
X150526094Y-115326344D01*
X150464938Y-115554586D01*
X150464936Y-115554596D01*
X150444341Y-115789999D01*
X150444341Y-115790000D01*
X150464936Y-116025403D01*
X150464938Y-116025413D01*
X150526094Y-116253655D01*
X150526096Y-116253659D01*
X150526097Y-116253663D01*
X150625965Y-116467830D01*
X150625967Y-116467834D01*
X150683151Y-116549500D01*
X150759434Y-116658444D01*
X150761501Y-116661395D01*
X150761506Y-116661402D01*
X150928597Y-116828493D01*
X150928603Y-116828498D01*
X151114158Y-116958425D01*
X151157783Y-117013002D01*
X151164977Y-117082500D01*
X151133454Y-117144855D01*
X151114158Y-117161575D01*
X150928597Y-117291505D01*
X150761505Y-117458597D01*
X150625965Y-117652169D01*
X150625964Y-117652171D01*
X150526098Y-117866335D01*
X150526094Y-117866344D01*
X150464938Y-118094586D01*
X150464936Y-118094596D01*
X150444341Y-118329999D01*
X150444341Y-118330000D01*
X150464936Y-118565403D01*
X150464938Y-118565413D01*
X150526094Y-118793655D01*
X150526096Y-118793659D01*
X150526097Y-118793663D01*
X150589721Y-118930104D01*
X150625965Y-119007830D01*
X150625967Y-119007834D01*
X150761501Y-119201395D01*
X150761506Y-119201402D01*
X150928597Y-119368493D01*
X150928603Y-119368498D01*
X151114158Y-119498425D01*
X151157783Y-119553002D01*
X151164977Y-119622500D01*
X151133454Y-119684855D01*
X151114158Y-119701575D01*
X150928597Y-119831505D01*
X150761505Y-119998597D01*
X150625965Y-120192169D01*
X150625964Y-120192171D01*
X150526098Y-120406335D01*
X150526094Y-120406344D01*
X150464938Y-120634586D01*
X150464936Y-120634596D01*
X150444341Y-120869999D01*
X150444341Y-120870000D01*
X150464936Y-121105403D01*
X150464938Y-121105413D01*
X150526094Y-121333655D01*
X150526096Y-121333659D01*
X150526097Y-121333663D01*
X150625965Y-121547830D01*
X150625967Y-121547834D01*
X150761501Y-121741395D01*
X150761506Y-121741402D01*
X150928597Y-121908493D01*
X150928603Y-121908498D01*
X151114158Y-122038425D01*
X151157783Y-122093002D01*
X151164977Y-122162500D01*
X151133454Y-122224855D01*
X151114158Y-122241575D01*
X150928597Y-122371505D01*
X150761505Y-122538597D01*
X150625965Y-122732169D01*
X150625964Y-122732171D01*
X150526098Y-122946335D01*
X150526094Y-122946344D01*
X150464938Y-123174586D01*
X150464936Y-123174596D01*
X150444341Y-123409999D01*
X150444341Y-123410000D01*
X150464936Y-123645403D01*
X150464938Y-123645413D01*
X150526094Y-123873655D01*
X150526096Y-123873659D01*
X150526097Y-123873663D01*
X150625965Y-124087830D01*
X150625967Y-124087834D01*
X150734281Y-124242521D01*
X150761501Y-124281396D01*
X150761506Y-124281402D01*
X150883430Y-124403326D01*
X150916915Y-124464649D01*
X150911931Y-124534341D01*
X150870059Y-124590274D01*
X150839083Y-124607189D01*
X150707669Y-124656203D01*
X150707664Y-124656206D01*
X150592455Y-124742452D01*
X150592452Y-124742455D01*
X150506206Y-124857664D01*
X150506202Y-124857671D01*
X150455908Y-124992517D01*
X150450853Y-125039540D01*
X150449501Y-125052123D01*
X150449500Y-125052135D01*
X150449500Y-126847870D01*
X150449501Y-126847876D01*
X150455908Y-126907483D01*
X150506202Y-127042328D01*
X150506206Y-127042335D01*
X150592452Y-127157544D01*
X150592455Y-127157547D01*
X150707664Y-127243793D01*
X150707671Y-127243797D01*
X150842517Y-127294091D01*
X150842516Y-127294091D01*
X150849444Y-127294835D01*
X150902127Y-127300500D01*
X152697872Y-127300499D01*
X152757483Y-127294091D01*
X152892331Y-127243796D01*
X153007546Y-127157546D01*
X153093796Y-127042331D01*
X153144091Y-126907483D01*
X153150500Y-126847873D01*
X153150499Y-125052128D01*
X153144091Y-124992517D01*
X153093796Y-124857669D01*
X153093795Y-124857668D01*
X153093793Y-124857664D01*
X153007547Y-124742455D01*
X153007544Y-124742452D01*
X152892335Y-124656206D01*
X152892328Y-124656202D01*
X152760917Y-124607189D01*
X152704983Y-124565318D01*
X152680566Y-124499853D01*
X152695418Y-124431580D01*
X152716563Y-124403332D01*
X152838495Y-124281401D01*
X152974035Y-124087830D01*
X153073903Y-123873663D01*
X153135063Y-123645408D01*
X153155659Y-123410000D01*
X153135063Y-123174592D01*
X153073903Y-122946337D01*
X152974035Y-122732171D01*
X152965835Y-122720459D01*
X152838494Y-122538597D01*
X152671402Y-122371506D01*
X152671396Y-122371501D01*
X152485842Y-122241575D01*
X152442217Y-122186998D01*
X152435023Y-122117500D01*
X152466546Y-122055145D01*
X152485842Y-122038425D01*
X152508026Y-122022891D01*
X152671401Y-121908495D01*
X152838495Y-121741401D01*
X152974035Y-121547830D01*
X153073903Y-121333663D01*
X153135063Y-121105408D01*
X153155659Y-120870000D01*
X153135063Y-120634592D01*
X153073903Y-120406337D01*
X152974035Y-120192171D01*
X152838495Y-119998599D01*
X152838494Y-119998597D01*
X152671402Y-119831506D01*
X152671396Y-119831501D01*
X152485842Y-119701575D01*
X152442217Y-119646998D01*
X152435023Y-119577500D01*
X152466546Y-119515145D01*
X152485842Y-119498425D01*
X152508026Y-119482891D01*
X152671401Y-119368495D01*
X152838495Y-119201401D01*
X152974035Y-119007830D01*
X153073903Y-118793663D01*
X153135063Y-118565408D01*
X153155659Y-118330000D01*
X153135063Y-118094592D01*
X153073903Y-117866337D01*
X153044701Y-117803713D01*
X156439500Y-117803713D01*
X156439500Y-118016286D01*
X156471169Y-118216239D01*
X156472754Y-118226243D01*
X156535194Y-118418414D01*
X156538444Y-118428414D01*
X156634951Y-118617820D01*
X156759890Y-118789786D01*
X156910213Y-118940109D01*
X157082179Y-119065048D01*
X157082181Y-119065049D01*
X157082184Y-119065051D01*
X157271588Y-119161557D01*
X157473757Y-119227246D01*
X157683713Y-119260500D01*
X157683714Y-119260500D01*
X157896286Y-119260500D01*
X157896287Y-119260500D01*
X158106243Y-119227246D01*
X158308412Y-119161557D01*
X158497816Y-119065051D01*
X158576575Y-119007830D01*
X158669786Y-118940109D01*
X158669788Y-118940106D01*
X158669792Y-118940104D01*
X158820104Y-118789792D01*
X158820106Y-118789788D01*
X158820109Y-118789786D01*
X158945048Y-118617820D01*
X158945047Y-118617820D01*
X158945051Y-118617816D01*
X159041557Y-118428412D01*
X159107246Y-118226243D01*
X159140500Y-118016287D01*
X159140500Y-117803713D01*
X159107246Y-117593757D01*
X159041557Y-117391588D01*
X158945051Y-117202184D01*
X158945049Y-117202181D01*
X158945048Y-117202179D01*
X158820109Y-117030213D01*
X158669786Y-116879890D01*
X158497820Y-116754951D01*
X158308414Y-116658444D01*
X158308413Y-116658443D01*
X158308412Y-116658443D01*
X158106243Y-116592754D01*
X158106241Y-116592753D01*
X158106240Y-116592753D01*
X157944957Y-116567208D01*
X157896287Y-116559500D01*
X157683713Y-116559500D01*
X157635042Y-116567208D01*
X157473760Y-116592753D01*
X157271585Y-116658444D01*
X157082179Y-116754951D01*
X156910213Y-116879890D01*
X156759890Y-117030213D01*
X156634951Y-117202179D01*
X156538444Y-117391585D01*
X156472753Y-117593760D01*
X156439500Y-117803713D01*
X153044701Y-117803713D01*
X152974035Y-117652171D01*
X152933136Y-117593760D01*
X152838494Y-117458597D01*
X152671402Y-117291506D01*
X152671396Y-117291501D01*
X152485842Y-117161575D01*
X152442217Y-117106998D01*
X152435023Y-117037500D01*
X152466546Y-116975145D01*
X152485842Y-116958425D01*
X152508026Y-116942891D01*
X152671401Y-116828495D01*
X152838495Y-116661401D01*
X152974035Y-116467830D01*
X153073903Y-116253663D01*
X153135063Y-116025408D01*
X153155659Y-115790000D01*
X153135063Y-115554592D01*
X153073903Y-115326337D01*
X152974035Y-115112171D01*
X152838495Y-114918599D01*
X152838494Y-114918597D01*
X152671402Y-114751506D01*
X152671396Y-114751501D01*
X152485842Y-114621575D01*
X152442217Y-114566998D01*
X152435023Y-114497500D01*
X152466546Y-114435145D01*
X152485842Y-114418425D01*
X152508026Y-114402891D01*
X152671401Y-114288495D01*
X152838495Y-114121401D01*
X152974035Y-113927830D01*
X153073903Y-113713663D01*
X153080244Y-113689999D01*
X157494357Y-113689999D01*
X157494357Y-113690000D01*
X157514884Y-113911535D01*
X157514885Y-113911537D01*
X157575769Y-114125523D01*
X157575775Y-114125538D01*
X157674938Y-114324683D01*
X157674943Y-114324691D01*
X157809020Y-114502238D01*
X157973437Y-114652123D01*
X157973439Y-114652125D01*
X158162595Y-114769245D01*
X158162596Y-114769245D01*
X158162599Y-114769247D01*
X158370060Y-114849618D01*
X158588757Y-114890500D01*
X158588759Y-114890500D01*
X158811241Y-114890500D01*
X158811243Y-114890500D01*
X159029940Y-114849618D01*
X159237401Y-114769247D01*
X159426562Y-114652124D01*
X159590981Y-114502236D01*
X159725058Y-114324689D01*
X159824229Y-114125528D01*
X159885115Y-113911536D01*
X159905643Y-113690000D01*
X159885115Y-113468464D01*
X159824229Y-113254472D01*
X159824224Y-113254461D01*
X159725061Y-113055316D01*
X159725056Y-113055308D01*
X159590979Y-112877761D01*
X159426562Y-112727876D01*
X159426560Y-112727874D01*
X159237404Y-112610754D01*
X159237398Y-112610752D01*
X159029940Y-112530382D01*
X158811243Y-112489500D01*
X158588757Y-112489500D01*
X158370060Y-112530382D01*
X158238864Y-112581207D01*
X158162601Y-112610752D01*
X158162595Y-112610754D01*
X157973439Y-112727874D01*
X157973437Y-112727876D01*
X157809020Y-112877761D01*
X157674943Y-113055308D01*
X157674938Y-113055316D01*
X157575775Y-113254461D01*
X157575769Y-113254476D01*
X157514885Y-113468462D01*
X157514884Y-113468464D01*
X157494357Y-113689999D01*
X153080244Y-113689999D01*
X153135063Y-113485408D01*
X153155659Y-113250000D01*
X153135063Y-113014592D01*
X153073903Y-112786337D01*
X152974035Y-112572171D01*
X152944775Y-112530382D01*
X152838494Y-112378597D01*
X152671402Y-112211506D01*
X152671396Y-112211501D01*
X152485842Y-112081575D01*
X152442217Y-112026998D01*
X152435023Y-111957500D01*
X152466546Y-111895145D01*
X152485842Y-111878425D01*
X152508026Y-111862891D01*
X152671401Y-111748495D01*
X152838495Y-111581401D01*
X152974035Y-111387830D01*
X153073903Y-111173663D01*
X153135063Y-110945408D01*
X153155659Y-110710000D01*
X153135063Y-110474592D01*
X153073903Y-110246337D01*
X152974035Y-110032171D01*
X152838495Y-109838599D01*
X152838494Y-109838597D01*
X152671402Y-109671506D01*
X152671396Y-109671501D01*
X152485842Y-109541575D01*
X152442217Y-109486998D01*
X152435023Y-109417500D01*
X152466546Y-109355145D01*
X152485842Y-109338425D01*
X152508026Y-109322891D01*
X152671401Y-109208495D01*
X152838495Y-109041401D01*
X152974035Y-108847830D01*
X153073903Y-108633663D01*
X153135063Y-108405408D01*
X153155659Y-108170000D01*
X153135063Y-107934592D01*
X153073903Y-107706337D01*
X152974035Y-107492171D01*
X152935787Y-107437546D01*
X152838494Y-107298597D01*
X152671402Y-107131506D01*
X152671396Y-107131501D01*
X152485842Y-107001575D01*
X152442217Y-106946998D01*
X152435023Y-106877500D01*
X152466546Y-106815145D01*
X152485842Y-106798425D01*
X152562248Y-106744925D01*
X152671401Y-106668495D01*
X152838495Y-106501401D01*
X152974035Y-106307830D01*
X153073903Y-106093663D01*
X153080244Y-106069999D01*
X157494357Y-106069999D01*
X157494357Y-106070000D01*
X157514884Y-106291535D01*
X157514885Y-106291537D01*
X157575769Y-106505523D01*
X157575775Y-106505538D01*
X157674938Y-106704683D01*
X157674943Y-106704691D01*
X157809020Y-106882238D01*
X157973437Y-107032123D01*
X157973439Y-107032125D01*
X158162595Y-107149245D01*
X158162596Y-107149245D01*
X158162599Y-107149247D01*
X158370060Y-107229618D01*
X158588757Y-107270500D01*
X158588759Y-107270500D01*
X158811241Y-107270500D01*
X158811243Y-107270500D01*
X159029940Y-107229618D01*
X159237401Y-107149247D01*
X159426562Y-107032124D01*
X159590981Y-106882236D01*
X159725058Y-106704689D01*
X159824229Y-106505528D01*
X159885115Y-106291536D01*
X159905643Y-106070000D01*
X159885115Y-105848464D01*
X159824229Y-105634472D01*
X159822003Y-105630001D01*
X159725061Y-105435316D01*
X159725056Y-105435308D01*
X159590979Y-105257761D01*
X159426562Y-105107876D01*
X159426560Y-105107874D01*
X159237404Y-104990754D01*
X159237398Y-104990752D01*
X159029940Y-104910382D01*
X158811243Y-104869500D01*
X158588757Y-104869500D01*
X158370060Y-104910382D01*
X158238864Y-104961207D01*
X158162601Y-104990752D01*
X158162595Y-104990754D01*
X157973439Y-105107874D01*
X157973437Y-105107876D01*
X157809020Y-105257761D01*
X157674943Y-105435308D01*
X157674938Y-105435316D01*
X157575775Y-105634461D01*
X157575769Y-105634476D01*
X157514885Y-105848462D01*
X157514884Y-105848464D01*
X157494357Y-106069999D01*
X153080244Y-106069999D01*
X153135063Y-105865408D01*
X153155659Y-105630000D01*
X153135063Y-105394592D01*
X153073903Y-105166337D01*
X152974035Y-104952171D01*
X152944775Y-104910382D01*
X152838494Y-104758597D01*
X152671402Y-104591506D01*
X152671395Y-104591501D01*
X152477834Y-104455967D01*
X152477830Y-104455965D01*
X152477828Y-104455964D01*
X152263663Y-104356097D01*
X152263659Y-104356096D01*
X152263655Y-104356094D01*
X152035413Y-104294938D01*
X152035403Y-104294936D01*
X151800001Y-104274341D01*
X151799999Y-104274341D01*
X151564596Y-104294936D01*
X151564586Y-104294938D01*
X151336344Y-104356094D01*
X151336335Y-104356098D01*
X151122171Y-104455964D01*
X151122169Y-104455965D01*
X150928597Y-104591505D01*
X150761505Y-104758597D01*
X150625965Y-104952169D01*
X150625964Y-104952171D01*
X150526098Y-105166335D01*
X150526094Y-105166344D01*
X150464938Y-105394586D01*
X150464936Y-105394596D01*
X150444341Y-105629999D01*
X150167756Y-105629999D01*
X150123903Y-105466337D01*
X150024035Y-105252171D01*
X150018425Y-105244158D01*
X149888494Y-105058597D01*
X149721402Y-104891506D01*
X149721395Y-104891501D01*
X149527834Y-104755967D01*
X149527830Y-104755965D01*
X149463094Y-104725778D01*
X149313663Y-104656097D01*
X149313659Y-104656096D01*
X149313655Y-104656094D01*
X149085413Y-104594938D01*
X149085403Y-104594936D01*
X148850001Y-104574341D01*
X148849999Y-104574341D01*
X148614596Y-104594936D01*
X148614583Y-104594939D01*
X148456592Y-104637271D01*
X148386742Y-104635608D01*
X148328880Y-104596445D01*
X148301377Y-104532216D01*
X148300500Y-104517496D01*
X148300500Y-97231999D01*
X156662357Y-97231999D01*
X156662357Y-97232000D01*
X156682884Y-97453535D01*
X156682885Y-97453537D01*
X156743769Y-97667523D01*
X156743775Y-97667538D01*
X156842938Y-97866683D01*
X156842943Y-97866691D01*
X156977020Y-98044238D01*
X157141437Y-98194123D01*
X157141439Y-98194125D01*
X157330595Y-98311245D01*
X157330596Y-98311245D01*
X157330599Y-98311247D01*
X157538060Y-98391618D01*
X157756757Y-98432500D01*
X157756759Y-98432500D01*
X157979241Y-98432500D01*
X157979243Y-98432500D01*
X158197940Y-98391618D01*
X158405401Y-98311247D01*
X158594562Y-98194124D01*
X158758981Y-98044236D01*
X158893058Y-97866689D01*
X158992229Y-97667528D01*
X159053115Y-97453536D01*
X159073643Y-97232000D01*
X159053115Y-97010464D01*
X158992229Y-96796472D01*
X158992224Y-96796461D01*
X158893061Y-96597316D01*
X158893056Y-96597308D01*
X158758979Y-96419761D01*
X158594562Y-96269876D01*
X158594560Y-96269874D01*
X158405404Y-96152754D01*
X158405398Y-96152752D01*
X158197940Y-96072382D01*
X157979243Y-96031500D01*
X157756757Y-96031500D01*
X157538060Y-96072382D01*
X157406864Y-96123207D01*
X157330601Y-96152752D01*
X157330595Y-96152754D01*
X157141439Y-96269874D01*
X157141437Y-96269876D01*
X156977020Y-96419761D01*
X156842943Y-96597308D01*
X156842938Y-96597316D01*
X156743775Y-96796461D01*
X156743769Y-96796476D01*
X156682885Y-97010462D01*
X156682884Y-97010464D01*
X156662357Y-97231999D01*
X148300500Y-97231999D01*
X148300500Y-91380880D01*
X157214671Y-91380880D01*
X157330823Y-91452798D01*
X157330824Y-91452799D01*
X157538195Y-91533134D01*
X157756807Y-91574000D01*
X157979193Y-91574000D01*
X158197804Y-91533134D01*
X158405177Y-91452798D01*
X158405178Y-91452797D01*
X158521327Y-91380880D01*
X157868001Y-90727554D01*
X157868000Y-90727554D01*
X157214671Y-91380880D01*
X148300500Y-91380880D01*
X148300500Y-90440097D01*
X148319909Y-90373999D01*
X156662859Y-90373999D01*
X156662859Y-90374000D01*
X156683378Y-90595439D01*
X156744240Y-90809350D01*
X156843364Y-91008419D01*
X156843366Y-91008421D01*
X156859138Y-91029306D01*
X157514446Y-90374000D01*
X157514446Y-90373999D01*
X157468369Y-90327922D01*
X157518000Y-90327922D01*
X157518000Y-90420078D01*
X157541852Y-90509095D01*
X157587930Y-90588905D01*
X157653095Y-90654070D01*
X157732905Y-90700148D01*
X157821922Y-90724000D01*
X157914078Y-90724000D01*
X158003095Y-90700148D01*
X158082905Y-90654070D01*
X158148070Y-90588905D01*
X158194148Y-90509095D01*
X158218000Y-90420078D01*
X158218000Y-90373999D01*
X158221554Y-90373999D01*
X158221554Y-90374000D01*
X158876860Y-91029306D01*
X158876861Y-91029306D01*
X158892631Y-91008425D01*
X158892632Y-91008422D01*
X158991759Y-90809350D01*
X159052621Y-90595439D01*
X159073141Y-90374000D01*
X159073141Y-90373999D01*
X159052621Y-90152560D01*
X158991759Y-89938649D01*
X158892633Y-89739577D01*
X158892631Y-89739574D01*
X158876860Y-89718691D01*
X158221554Y-90373999D01*
X158218000Y-90373999D01*
X158218000Y-90327922D01*
X158194148Y-90238905D01*
X158148070Y-90159095D01*
X158082905Y-90093930D01*
X158003095Y-90047852D01*
X157914078Y-90024000D01*
X157821922Y-90024000D01*
X157732905Y-90047852D01*
X157653095Y-90093930D01*
X157587930Y-90159095D01*
X157541852Y-90238905D01*
X157518000Y-90327922D01*
X157468369Y-90327922D01*
X156859138Y-89718691D01*
X156859137Y-89718691D01*
X156843369Y-89739571D01*
X156744240Y-89938649D01*
X156683378Y-90152560D01*
X156662859Y-90373999D01*
X148319909Y-90373999D01*
X148320185Y-90373058D01*
X148336819Y-90352416D01*
X149322117Y-89367118D01*
X157214671Y-89367118D01*
X157868000Y-90020446D01*
X157868001Y-90020446D01*
X158521327Y-89367118D01*
X158521326Y-89367117D01*
X158405181Y-89295203D01*
X158405175Y-89295200D01*
X158197804Y-89214865D01*
X157979193Y-89174000D01*
X157756807Y-89174000D01*
X157538195Y-89214865D01*
X157330824Y-89295200D01*
X157330818Y-89295204D01*
X157214672Y-89367117D01*
X157214671Y-89367118D01*
X149322117Y-89367118D01*
X149515235Y-89174000D01*
X152290520Y-86398716D01*
X152369577Y-86261784D01*
X152410501Y-86109057D01*
X152410501Y-85950942D01*
X152410501Y-85943347D01*
X152410500Y-85943329D01*
X152410500Y-72379060D01*
X152410501Y-72379047D01*
X152410501Y-72210945D01*
X152410501Y-72210943D01*
X152369577Y-72058215D01*
X152322475Y-71976632D01*
X152290520Y-71921284D01*
X152178716Y-71809480D01*
X152178715Y-71809479D01*
X152174385Y-71805149D01*
X152174374Y-71805139D01*
X149668916Y-69299681D01*
X149635431Y-69238358D01*
X149640415Y-69168666D01*
X149682287Y-69112733D01*
X149747751Y-69088316D01*
X149756597Y-69088000D01*
X151815500Y-69088000D01*
X151882539Y-69107685D01*
X151928294Y-69160489D01*
X151939500Y-69212000D01*
X151939500Y-69413330D01*
X151939499Y-69413348D01*
X151939499Y-69579054D01*
X151939498Y-69579054D01*
X151980423Y-69731785D01*
X152009358Y-69781900D01*
X152009359Y-69781904D01*
X152009360Y-69781904D01*
X152055478Y-69861785D01*
X152059479Y-69868714D01*
X152059481Y-69868717D01*
X152178349Y-69987585D01*
X152178355Y-69987590D01*
X155318583Y-73127819D01*
X155352068Y-73189142D01*
X155347084Y-73258834D01*
X155305212Y-73314767D01*
X155239748Y-73339184D01*
X155230902Y-73339500D01*
X153722129Y-73339500D01*
X153722123Y-73339501D01*
X153662516Y-73345908D01*
X153527671Y-73396202D01*
X153527664Y-73396206D01*
X153412455Y-73482452D01*
X153412452Y-73482455D01*
X153326206Y-73597664D01*
X153326202Y-73597671D01*
X153275908Y-73732517D01*
X153269501Y-73792116D01*
X153269500Y-73792135D01*
X153269500Y-75487870D01*
X153269501Y-75487876D01*
X153275908Y-75547483D01*
X153326202Y-75682328D01*
X153326206Y-75682335D01*
X153412452Y-75797544D01*
X153412455Y-75797547D01*
X153527664Y-75883793D01*
X153527671Y-75883797D01*
X153662513Y-75934090D01*
X153662514Y-75934090D01*
X153662517Y-75934091D01*
X153698353Y-75937944D01*
X153762901Y-75964679D01*
X153802751Y-76022070D01*
X153805246Y-76091896D01*
X153769595Y-76151985D01*
X153756223Y-76162805D01*
X153731182Y-76180339D01*
X153570342Y-76341179D01*
X153439865Y-76527517D01*
X153343734Y-76733673D01*
X153343730Y-76733682D01*
X153291127Y-76929999D01*
X153291128Y-76930000D01*
X154254314Y-76930000D01*
X154249920Y-76934394D01*
X154197259Y-77025606D01*
X154170000Y-77127339D01*
X154170000Y-77232661D01*
X154197259Y-77334394D01*
X154249920Y-77425606D01*
X154254314Y-77430000D01*
X153291128Y-77430000D01*
X153343730Y-77626317D01*
X153343734Y-77626326D01*
X153439865Y-77832482D01*
X153570342Y-78018820D01*
X153731179Y-78179657D01*
X153917518Y-78310134D01*
X153917520Y-78310135D01*
X153975865Y-78337342D01*
X154028305Y-78383514D01*
X154047457Y-78450707D01*
X154027242Y-78517589D01*
X153975867Y-78562105D01*
X153974685Y-78562657D01*
X153917264Y-78589433D01*
X153730858Y-78719954D01*
X153569954Y-78880858D01*
X153439432Y-79067265D01*
X153439431Y-79067267D01*
X153343261Y-79273502D01*
X153343258Y-79273511D01*
X153284366Y-79493302D01*
X153284364Y-79493313D01*
X153264532Y-79719998D01*
X153264532Y-79720001D01*
X153284364Y-79946686D01*
X153284366Y-79946697D01*
X153343258Y-80166488D01*
X153343261Y-80166497D01*
X153439431Y-80372732D01*
X153439432Y-80372734D01*
X153569954Y-80559141D01*
X153730858Y-80720045D01*
X153730861Y-80720047D01*
X153917266Y-80850568D01*
X154123504Y-80946739D01*
X154343308Y-81005635D01*
X154505230Y-81019801D01*
X154569998Y-81025468D01*
X154570000Y-81025468D01*
X154570002Y-81025468D01*
X154626673Y-81020509D01*
X154796692Y-81005635D01*
X155016496Y-80946739D01*
X155222734Y-80850568D01*
X155409139Y-80720047D01*
X155570047Y-80559139D01*
X155700568Y-80372734D01*
X155796739Y-80166496D01*
X155855635Y-79946692D01*
X155875468Y-79720000D01*
X155855635Y-79493308D01*
X155796739Y-79273504D01*
X155700568Y-79067266D01*
X155570047Y-78880861D01*
X155570045Y-78880858D01*
X155409141Y-78719954D01*
X155222734Y-78589432D01*
X155222732Y-78589431D01*
X155165315Y-78562657D01*
X155164132Y-78562105D01*
X155111694Y-78515934D01*
X155092542Y-78448740D01*
X155112758Y-78381859D01*
X155164134Y-78337341D01*
X155222484Y-78310132D01*
X155408820Y-78179657D01*
X155569657Y-78018820D01*
X155700134Y-77832482D01*
X155796265Y-77626326D01*
X155796269Y-77626317D01*
X155848872Y-77430000D01*
X154885686Y-77430000D01*
X154890080Y-77425606D01*
X154942741Y-77334394D01*
X154970000Y-77232661D01*
X154970000Y-77127339D01*
X154942741Y-77025606D01*
X154890080Y-76934394D01*
X154885686Y-76930000D01*
X155848872Y-76930000D01*
X155848872Y-76929999D01*
X155796269Y-76733682D01*
X155796265Y-76733673D01*
X155700134Y-76527517D01*
X155569657Y-76341179D01*
X155408820Y-76180342D01*
X155383779Y-76162808D01*
X155340154Y-76108230D01*
X155332962Y-76038732D01*
X155364484Y-75976377D01*
X155424714Y-75940964D01*
X155441650Y-75937943D01*
X155477483Y-75934091D01*
X155612328Y-75883797D01*
X155612327Y-75883797D01*
X155612331Y-75883796D01*
X155727546Y-75797546D01*
X155813796Y-75682331D01*
X155864091Y-75547483D01*
X155870500Y-75487873D01*
X155870499Y-73979096D01*
X155890184Y-73912058D01*
X155942987Y-73866303D01*
X156012146Y-73856359D01*
X156075702Y-73885384D01*
X156082180Y-73891416D01*
X157664298Y-75473534D01*
X157697783Y-75534857D01*
X157699837Y-75547331D01*
X157709630Y-75634249D01*
X157709631Y-75634254D01*
X157709632Y-75634255D01*
X157711042Y-75638284D01*
X157769210Y-75804521D01*
X157850624Y-75934090D01*
X157865184Y-75957262D01*
X157992738Y-76084816D01*
X158054195Y-76123432D01*
X158144766Y-76180342D01*
X158145478Y-76180789D01*
X158315745Y-76240368D01*
X158315750Y-76240369D01*
X158494996Y-76260565D01*
X158495000Y-76260565D01*
X158495004Y-76260565D01*
X158674249Y-76240369D01*
X158674252Y-76240368D01*
X158674255Y-76240368D01*
X158844522Y-76180789D01*
X158997262Y-76084816D01*
X159124816Y-75957262D01*
X159220789Y-75804522D01*
X159280368Y-75634255D01*
X159287987Y-75566635D01*
X159300565Y-75455003D01*
X159300565Y-75454996D01*
X159280369Y-75275750D01*
X159280368Y-75275745D01*
X159220789Y-75105478D01*
X159208862Y-75086497D01*
X159136815Y-74971835D01*
X159124816Y-74952738D01*
X158997262Y-74825184D01*
X158945755Y-74792820D01*
X158844521Y-74729210D01*
X158674249Y-74669630D01*
X158587331Y-74659837D01*
X158540118Y-74639998D01*
X160884532Y-74639998D01*
X160884532Y-74640001D01*
X160904364Y-74866686D01*
X160904366Y-74866697D01*
X160963258Y-75086488D01*
X160963261Y-75086497D01*
X161059431Y-75292732D01*
X161059432Y-75292734D01*
X161189954Y-75479141D01*
X161350858Y-75640045D01*
X161350861Y-75640047D01*
X161537266Y-75770568D01*
X161595275Y-75797618D01*
X161647714Y-75843791D01*
X161666866Y-75910984D01*
X161646650Y-75977865D01*
X161595275Y-76022382D01*
X161537267Y-76049431D01*
X161537265Y-76049432D01*
X161350858Y-76179954D01*
X161189954Y-76340858D01*
X161059432Y-76527265D01*
X161059431Y-76527267D01*
X160963261Y-76733502D01*
X160963258Y-76733511D01*
X160904366Y-76953302D01*
X160904364Y-76953313D01*
X160884532Y-77179998D01*
X160884532Y-77180001D01*
X160904364Y-77406686D01*
X160904366Y-77406697D01*
X160963258Y-77626488D01*
X160963261Y-77626497D01*
X161059431Y-77832732D01*
X161059432Y-77832734D01*
X161189954Y-78019141D01*
X161350858Y-78180045D01*
X161350861Y-78180047D01*
X161537266Y-78310568D01*
X161595865Y-78337893D01*
X161648305Y-78384065D01*
X161667457Y-78451258D01*
X161647242Y-78518139D01*
X161595867Y-78562657D01*
X161537515Y-78589867D01*
X161351179Y-78720342D01*
X161190342Y-78881179D01*
X161059865Y-79067517D01*
X160963734Y-79273673D01*
X160963730Y-79273682D01*
X160911127Y-79469999D01*
X160911128Y-79470000D01*
X161874314Y-79470000D01*
X161869920Y-79474394D01*
X161817259Y-79565606D01*
X161790000Y-79667339D01*
X161790000Y-79772661D01*
X161817259Y-79874394D01*
X161869920Y-79965606D01*
X161874314Y-79970000D01*
X160911128Y-79970000D01*
X160963730Y-80166317D01*
X160963734Y-80166326D01*
X161059865Y-80372482D01*
X161190342Y-80558820D01*
X161351179Y-80719657D01*
X161537517Y-80850134D01*
X161743673Y-80946265D01*
X161743682Y-80946269D01*
X161939999Y-80998872D01*
X161940000Y-80998871D01*
X161940000Y-80035686D01*
X161944394Y-80040080D01*
X162035606Y-80092741D01*
X162137339Y-80120000D01*
X162242661Y-80120000D01*
X162344394Y-80092741D01*
X162435606Y-80040080D01*
X162440000Y-80035686D01*
X162440000Y-80998872D01*
X162636317Y-80946269D01*
X162636326Y-80946265D01*
X162842482Y-80850134D01*
X163028820Y-80719657D01*
X163189657Y-80558820D01*
X163320134Y-80372482D01*
X163416265Y-80166326D01*
X163416269Y-80166317D01*
X163468872Y-79970000D01*
X162505686Y-79970000D01*
X162510080Y-79965606D01*
X162562741Y-79874394D01*
X162590000Y-79772661D01*
X162590000Y-79667339D01*
X162562741Y-79565606D01*
X162510080Y-79474394D01*
X162505686Y-79470000D01*
X163468872Y-79470000D01*
X163468872Y-79469999D01*
X163416269Y-79273682D01*
X163416265Y-79273673D01*
X163320134Y-79067517D01*
X163189657Y-78881179D01*
X163028820Y-78720342D01*
X162842482Y-78589865D01*
X162784133Y-78562657D01*
X162731694Y-78516484D01*
X162712542Y-78449291D01*
X162732758Y-78382410D01*
X162784129Y-78337895D01*
X162842734Y-78310568D01*
X163029139Y-78180047D01*
X163190047Y-78019139D01*
X163320568Y-77832734D01*
X163416739Y-77626496D01*
X163475635Y-77406692D01*
X163495468Y-77180000D01*
X163475635Y-76953308D01*
X163416739Y-76733504D01*
X163320568Y-76527266D01*
X163190047Y-76340861D01*
X163190045Y-76340858D01*
X163029141Y-76179954D01*
X162842734Y-76049432D01*
X162842728Y-76049429D01*
X162784725Y-76022382D01*
X162732285Y-75976210D01*
X162713133Y-75909017D01*
X162733348Y-75842135D01*
X162784725Y-75797618D01*
X162842734Y-75770568D01*
X163029139Y-75640047D01*
X163190047Y-75479139D01*
X163320568Y-75292734D01*
X163416739Y-75086496D01*
X163475635Y-74866692D01*
X163492876Y-74669630D01*
X163495468Y-74640001D01*
X163495468Y-74639998D01*
X163486763Y-74540500D01*
X163475635Y-74413308D01*
X163421110Y-74209816D01*
X163416741Y-74193511D01*
X163416738Y-74193502D01*
X163397495Y-74152236D01*
X163320568Y-73987266D01*
X163190047Y-73800861D01*
X163190045Y-73800858D01*
X163029141Y-73639954D01*
X162842734Y-73509432D01*
X162842732Y-73509431D01*
X162636497Y-73413261D01*
X162636488Y-73413258D01*
X162416697Y-73354366D01*
X162416693Y-73354365D01*
X162416692Y-73354365D01*
X162416691Y-73354364D01*
X162416686Y-73354364D01*
X162190002Y-73334532D01*
X162189998Y-73334532D01*
X161963313Y-73354364D01*
X161963302Y-73354366D01*
X161743511Y-73413258D01*
X161743502Y-73413261D01*
X161537267Y-73509431D01*
X161537265Y-73509432D01*
X161350858Y-73639954D01*
X161189954Y-73800858D01*
X161059432Y-73987265D01*
X161059431Y-73987267D01*
X160963261Y-74193502D01*
X160963258Y-74193511D01*
X160904366Y-74413302D01*
X160904364Y-74413313D01*
X160884532Y-74639998D01*
X158540118Y-74639998D01*
X158522917Y-74632770D01*
X158513534Y-74624298D01*
X153188917Y-69299681D01*
X153155432Y-69238358D01*
X153160416Y-69168666D01*
X153202288Y-69112733D01*
X153267752Y-69088316D01*
X153276598Y-69088000D01*
X155943793Y-69088000D01*
X155975730Y-69092183D01*
X155979704Y-69093244D01*
X156042082Y-69110229D01*
X156042083Y-69110229D01*
X156042131Y-69110242D01*
X156043064Y-69110364D01*
X156043676Y-69110445D01*
X156044605Y-69110571D01*
X156044650Y-69110570D01*
X156044651Y-69110571D01*
X156109061Y-69110500D01*
X156109437Y-69110500D01*
X165365939Y-69147976D01*
X165432895Y-69167932D01*
X165478436Y-69220921D01*
X165489434Y-69271988D01*
X165483266Y-127875513D01*
X165463574Y-127942550D01*
X165410766Y-127988300D01*
X165359266Y-127999500D01*
X119608266Y-127999500D01*
X119541227Y-127979815D01*
X119495472Y-127927011D01*
X119484266Y-127875487D01*
X119484328Y-127285061D01*
X119484713Y-123630000D01*
X122893968Y-123630000D01*
X124031518Y-123630000D01*
X124020889Y-123648409D01*
X123980000Y-123801009D01*
X123980000Y-123958991D01*
X124020889Y-124111591D01*
X124031518Y-124130000D01*
X122893968Y-124130000D01*
X122894274Y-124134079D01*
X122894275Y-124134086D01*
X122950967Y-124382475D01*
X122950973Y-124382494D01*
X123044058Y-124619671D01*
X123044057Y-124619671D01*
X123171455Y-124840328D01*
X123330320Y-125039540D01*
X123517097Y-125212842D01*
X123727616Y-125356371D01*
X123727624Y-125356376D01*
X123957176Y-125466921D01*
X123957174Y-125466921D01*
X124200652Y-125542024D01*
X124200660Y-125542026D01*
X124330000Y-125561520D01*
X124330000Y-124428482D01*
X124348409Y-124439111D01*
X124501009Y-124480000D01*
X124658991Y-124480000D01*
X124811591Y-124439111D01*
X124830000Y-124428482D01*
X124830000Y-125561519D01*
X124959339Y-125542026D01*
X124959347Y-125542024D01*
X125202824Y-125466921D01*
X125432376Y-125356376D01*
X125432377Y-125356375D01*
X125642905Y-125212840D01*
X125829679Y-125039540D01*
X125988544Y-124840328D01*
X126115941Y-124619671D01*
X126209026Y-124382494D01*
X126209032Y-124382475D01*
X126265724Y-124134086D01*
X126265725Y-124134079D01*
X126266032Y-124130000D01*
X125128482Y-124130000D01*
X125139111Y-124111591D01*
X125180000Y-123958991D01*
X125180000Y-123801009D01*
X125139111Y-123648409D01*
X125128482Y-123630000D01*
X126266031Y-123630000D01*
X126265725Y-123625920D01*
X126265724Y-123625913D01*
X126209032Y-123377524D01*
X126209026Y-123377505D01*
X126115941Y-123140328D01*
X126115942Y-123140328D01*
X125988544Y-122919671D01*
X125829679Y-122720459D01*
X125642905Y-122547159D01*
X125432377Y-122403624D01*
X125432376Y-122403623D01*
X125202823Y-122293078D01*
X125202825Y-122293078D01*
X124959354Y-122217977D01*
X124959348Y-122217976D01*
X124830000Y-122198479D01*
X124830000Y-123331517D01*
X124811591Y-123320889D01*
X124658991Y-123280000D01*
X124501009Y-123280000D01*
X124348409Y-123320889D01*
X124330000Y-123331517D01*
X124330000Y-122198479D01*
X124200651Y-122217976D01*
X124200645Y-122217977D01*
X123957175Y-122293078D01*
X123727624Y-122403623D01*
X123727616Y-122403628D01*
X123517097Y-122547157D01*
X123330320Y-122720459D01*
X123171455Y-122919671D01*
X123044058Y-123140328D01*
X122950973Y-123377505D01*
X122950967Y-123377524D01*
X122894275Y-123625913D01*
X122894274Y-123625920D01*
X122893968Y-123630000D01*
X119484713Y-123630000D01*
X119485327Y-117793713D01*
X128069500Y-117793713D01*
X128069500Y-118006287D01*
X128102754Y-118216243D01*
X128106003Y-118226243D01*
X128168444Y-118418414D01*
X128264951Y-118607820D01*
X128389890Y-118779786D01*
X128540213Y-118930109D01*
X128712179Y-119055048D01*
X128712181Y-119055049D01*
X128712184Y-119055051D01*
X128901588Y-119151557D01*
X129103757Y-119217246D01*
X129313713Y-119250500D01*
X129313714Y-119250500D01*
X129526286Y-119250500D01*
X129526287Y-119250500D01*
X129736243Y-119217246D01*
X129938412Y-119151557D01*
X130127816Y-119055051D01*
X130192811Y-119007830D01*
X130299786Y-118930109D01*
X130299788Y-118930106D01*
X130299792Y-118930104D01*
X130450104Y-118779792D01*
X130450106Y-118779788D01*
X130450109Y-118779786D01*
X130575048Y-118607820D01*
X130575047Y-118607820D01*
X130575051Y-118607816D01*
X130671557Y-118418412D01*
X130737246Y-118216243D01*
X130770500Y-118006287D01*
X130770500Y-117793713D01*
X130737246Y-117583757D01*
X130671557Y-117381588D01*
X130575051Y-117192184D01*
X130575049Y-117192181D01*
X130575048Y-117192179D01*
X130450109Y-117020213D01*
X130299786Y-116869890D01*
X130127820Y-116744951D01*
X129938414Y-116648444D01*
X129938413Y-116648443D01*
X129938412Y-116648443D01*
X129736243Y-116582754D01*
X129736241Y-116582753D01*
X129736240Y-116582753D01*
X129574957Y-116557208D01*
X129526287Y-116549500D01*
X129313713Y-116549500D01*
X129265042Y-116557208D01*
X129103760Y-116582753D01*
X128901585Y-116648444D01*
X128712179Y-116744951D01*
X128540213Y-116869890D01*
X128389890Y-117020213D01*
X128264951Y-117192179D01*
X128168444Y-117381585D01*
X128102753Y-117583760D01*
X128091918Y-117652171D01*
X128069500Y-117793713D01*
X119485327Y-117793713D01*
X119486340Y-108169999D01*
X131844341Y-108169999D01*
X131844341Y-108170000D01*
X131864936Y-108405403D01*
X131864938Y-108405413D01*
X131926094Y-108633655D01*
X131926096Y-108633659D01*
X131926097Y-108633663D01*
X132025965Y-108847830D01*
X132025967Y-108847834D01*
X132161501Y-109041395D01*
X132161506Y-109041402D01*
X132328597Y-109208493D01*
X132328603Y-109208498D01*
X132514158Y-109338425D01*
X132557783Y-109393002D01*
X132564977Y-109462500D01*
X132533454Y-109524855D01*
X132514158Y-109541575D01*
X132328597Y-109671505D01*
X132161505Y-109838597D01*
X132025965Y-110032169D01*
X132025964Y-110032171D01*
X131926098Y-110246335D01*
X131926094Y-110246344D01*
X131864938Y-110474586D01*
X131864936Y-110474596D01*
X131844341Y-110709999D01*
X131844341Y-110710000D01*
X131864936Y-110945403D01*
X131864938Y-110945413D01*
X131926094Y-111173655D01*
X131926096Y-111173659D01*
X131926097Y-111173663D01*
X132003884Y-111340478D01*
X132025965Y-111387830D01*
X132025967Y-111387834D01*
X132161501Y-111581395D01*
X132161506Y-111581402D01*
X132328597Y-111748493D01*
X132328603Y-111748498D01*
X132514158Y-111878425D01*
X132557783Y-111933002D01*
X132564977Y-112002500D01*
X132533454Y-112064855D01*
X132514158Y-112081575D01*
X132328597Y-112211505D01*
X132161505Y-112378597D01*
X132025965Y-112572169D01*
X132025964Y-112572171D01*
X131926098Y-112786335D01*
X131926094Y-112786344D01*
X131864938Y-113014586D01*
X131864936Y-113014596D01*
X131844341Y-113249999D01*
X131844341Y-113250000D01*
X131864936Y-113485403D01*
X131864938Y-113485413D01*
X131926094Y-113713655D01*
X131926096Y-113713659D01*
X131926097Y-113713663D01*
X132018367Y-113911536D01*
X132025965Y-113927830D01*
X132025967Y-113927834D01*
X132161501Y-114121395D01*
X132161506Y-114121402D01*
X132328597Y-114288493D01*
X132328603Y-114288498D01*
X132514158Y-114418425D01*
X132557783Y-114473002D01*
X132564977Y-114542500D01*
X132533454Y-114604855D01*
X132514158Y-114621575D01*
X132328597Y-114751505D01*
X132161505Y-114918597D01*
X132025965Y-115112169D01*
X132025964Y-115112171D01*
X131926098Y-115326335D01*
X131926094Y-115326344D01*
X131864938Y-115554586D01*
X131864936Y-115554596D01*
X131844341Y-115789999D01*
X131844341Y-115790000D01*
X131864936Y-116025403D01*
X131864938Y-116025413D01*
X131926094Y-116253655D01*
X131926096Y-116253659D01*
X131926097Y-116253663D01*
X132025965Y-116467830D01*
X132025967Y-116467834D01*
X132083151Y-116549500D01*
X132159434Y-116658444D01*
X132161501Y-116661395D01*
X132161506Y-116661402D01*
X132328597Y-116828493D01*
X132328603Y-116828498D01*
X132514158Y-116958425D01*
X132557783Y-117013002D01*
X132564977Y-117082500D01*
X132533454Y-117144855D01*
X132514158Y-117161575D01*
X132328597Y-117291505D01*
X132161505Y-117458597D01*
X132025965Y-117652169D01*
X132025964Y-117652171D01*
X131926098Y-117866335D01*
X131926094Y-117866344D01*
X131864938Y-118094586D01*
X131864936Y-118094596D01*
X131844341Y-118329999D01*
X131844341Y-118330000D01*
X131864936Y-118565403D01*
X131864938Y-118565413D01*
X131926094Y-118793655D01*
X131926096Y-118793659D01*
X131926097Y-118793663D01*
X131989721Y-118930104D01*
X132025965Y-119007830D01*
X132025967Y-119007834D01*
X132161501Y-119201395D01*
X132161506Y-119201402D01*
X132328597Y-119368493D01*
X132328603Y-119368498D01*
X132514158Y-119498425D01*
X132557783Y-119553002D01*
X132564977Y-119622500D01*
X132533454Y-119684855D01*
X132514158Y-119701575D01*
X132328597Y-119831505D01*
X132161505Y-119998597D01*
X132025965Y-120192169D01*
X132025964Y-120192171D01*
X131926098Y-120406335D01*
X131926094Y-120406344D01*
X131864938Y-120634586D01*
X131864936Y-120634596D01*
X131844341Y-120869999D01*
X131844341Y-120870000D01*
X131864936Y-121105403D01*
X131864938Y-121105413D01*
X131926094Y-121333655D01*
X131926096Y-121333659D01*
X131926097Y-121333663D01*
X132025965Y-121547830D01*
X132025967Y-121547834D01*
X132161501Y-121741395D01*
X132161506Y-121741402D01*
X132328597Y-121908493D01*
X132328603Y-121908498D01*
X132514158Y-122038425D01*
X132557783Y-122093002D01*
X132564977Y-122162500D01*
X132533454Y-122224855D01*
X132514158Y-122241575D01*
X132328597Y-122371505D01*
X132161505Y-122538597D01*
X132025965Y-122732169D01*
X132025964Y-122732171D01*
X131926098Y-122946335D01*
X131926094Y-122946344D01*
X131864938Y-123174586D01*
X131864936Y-123174596D01*
X131844341Y-123409999D01*
X131844341Y-123410000D01*
X131864936Y-123645403D01*
X131864938Y-123645413D01*
X131926094Y-123873655D01*
X131926096Y-123873659D01*
X131926097Y-123873663D01*
X132025965Y-124087830D01*
X132025967Y-124087834D01*
X132134281Y-124242521D01*
X132161501Y-124281396D01*
X132161506Y-124281402D01*
X132328597Y-124448493D01*
X132328603Y-124448498D01*
X132514158Y-124578425D01*
X132557783Y-124633002D01*
X132564977Y-124702500D01*
X132533454Y-124764855D01*
X132514158Y-124781575D01*
X132328597Y-124911505D01*
X132161505Y-125078597D01*
X132025965Y-125272169D01*
X132025964Y-125272171D01*
X131926098Y-125486335D01*
X131926094Y-125486344D01*
X131864938Y-125714586D01*
X131864936Y-125714596D01*
X131844341Y-125949999D01*
X131844341Y-125950000D01*
X131864936Y-126185403D01*
X131864938Y-126185413D01*
X131926094Y-126413655D01*
X131926096Y-126413659D01*
X131926097Y-126413663D01*
X132025965Y-126627830D01*
X132025967Y-126627834D01*
X132134281Y-126782521D01*
X132161505Y-126821401D01*
X132328599Y-126988495D01*
X132425384Y-127056265D01*
X132522165Y-127124032D01*
X132522167Y-127124033D01*
X132522170Y-127124035D01*
X132736337Y-127223903D01*
X132964592Y-127285063D01*
X133141034Y-127300500D01*
X133199999Y-127305659D01*
X133200000Y-127305659D01*
X133200001Y-127305659D01*
X133258966Y-127300500D01*
X133435408Y-127285063D01*
X133663663Y-127223903D01*
X133877830Y-127124035D01*
X134071401Y-126988495D01*
X134238495Y-126821401D01*
X134374035Y-126627830D01*
X134473903Y-126413663D01*
X134535063Y-126185408D01*
X134555659Y-125950000D01*
X134535063Y-125714592D01*
X134473903Y-125486337D01*
X134374035Y-125272171D01*
X134332492Y-125212840D01*
X134238494Y-125078597D01*
X134071402Y-124911506D01*
X134071396Y-124911501D01*
X133885842Y-124781575D01*
X133842217Y-124726998D01*
X133835023Y-124657500D01*
X133866546Y-124595145D01*
X133885842Y-124578425D01*
X134026407Y-124480000D01*
X134071401Y-124448495D01*
X134238495Y-124281401D01*
X134374035Y-124087830D01*
X134473903Y-123873663D01*
X134535063Y-123645408D01*
X134555659Y-123410000D01*
X134535063Y-123174592D01*
X134473903Y-122946337D01*
X134374035Y-122732171D01*
X134365835Y-122720459D01*
X134238494Y-122538597D01*
X134071402Y-122371506D01*
X134071396Y-122371501D01*
X133885842Y-122241575D01*
X133842217Y-122186998D01*
X133835023Y-122117500D01*
X133866546Y-122055145D01*
X133885842Y-122038425D01*
X133908026Y-122022891D01*
X134071401Y-121908495D01*
X134238495Y-121741401D01*
X134374035Y-121547830D01*
X134473903Y-121333663D01*
X134535063Y-121105408D01*
X134555659Y-120870000D01*
X134535063Y-120634592D01*
X134473903Y-120406337D01*
X134374035Y-120192171D01*
X134238495Y-119998599D01*
X134238494Y-119998597D01*
X134071402Y-119831506D01*
X134071396Y-119831501D01*
X133885842Y-119701575D01*
X133842217Y-119646998D01*
X133835023Y-119577500D01*
X133866546Y-119515145D01*
X133885842Y-119498425D01*
X133908026Y-119482891D01*
X134071401Y-119368495D01*
X134238495Y-119201401D01*
X134374035Y-119007830D01*
X134473903Y-118793663D01*
X134535063Y-118565408D01*
X134555659Y-118330000D01*
X134535063Y-118094592D01*
X134473903Y-117866337D01*
X134374035Y-117652171D01*
X134333136Y-117593760D01*
X134238494Y-117458597D01*
X134071402Y-117291506D01*
X134071396Y-117291501D01*
X133885842Y-117161575D01*
X133842217Y-117106998D01*
X133835023Y-117037500D01*
X133866546Y-116975145D01*
X133885842Y-116958425D01*
X133908026Y-116942891D01*
X134071401Y-116828495D01*
X134238495Y-116661401D01*
X134374035Y-116467830D01*
X134473903Y-116253663D01*
X134535063Y-116025408D01*
X134555659Y-115790000D01*
X134535063Y-115554592D01*
X134473903Y-115326337D01*
X134374035Y-115112171D01*
X134238495Y-114918599D01*
X134238494Y-114918597D01*
X134071402Y-114751506D01*
X134071396Y-114751501D01*
X133885842Y-114621575D01*
X133842217Y-114566998D01*
X133835023Y-114497500D01*
X133866546Y-114435145D01*
X133885842Y-114418425D01*
X133908026Y-114402891D01*
X134071401Y-114288495D01*
X134238495Y-114121401D01*
X134374035Y-113927830D01*
X134473903Y-113713663D01*
X134535063Y-113485408D01*
X134555659Y-113250000D01*
X134535063Y-113014592D01*
X134473903Y-112786337D01*
X134374035Y-112572171D01*
X134344775Y-112530382D01*
X134238494Y-112378597D01*
X134071402Y-112211506D01*
X134071396Y-112211501D01*
X133885842Y-112081575D01*
X133842217Y-112026998D01*
X133835023Y-111957500D01*
X133866546Y-111895145D01*
X133885842Y-111878425D01*
X133908026Y-111862891D01*
X134071401Y-111748495D01*
X134238495Y-111581401D01*
X134374035Y-111387830D01*
X134473903Y-111173663D01*
X134535063Y-110945408D01*
X134555659Y-110710000D01*
X134535063Y-110474592D01*
X134473903Y-110246337D01*
X134374035Y-110032171D01*
X134238495Y-109838599D01*
X134238494Y-109838597D01*
X134071402Y-109671506D01*
X134071396Y-109671501D01*
X133885842Y-109541575D01*
X133842217Y-109486998D01*
X133835023Y-109417500D01*
X133866546Y-109355145D01*
X133885842Y-109338425D01*
X133908026Y-109322891D01*
X134071401Y-109208495D01*
X134238495Y-109041401D01*
X134374035Y-108847830D01*
X134473903Y-108633663D01*
X134535063Y-108405408D01*
X134555659Y-108170000D01*
X134535063Y-107934592D01*
X134473903Y-107706337D01*
X134374035Y-107492171D01*
X134335787Y-107437546D01*
X134238494Y-107298597D01*
X134071402Y-107131506D01*
X134071401Y-107131505D01*
X133885405Y-107001269D01*
X133841781Y-106946692D01*
X133834588Y-106877193D01*
X133866110Y-106814839D01*
X133885404Y-106798120D01*
X133961371Y-106744925D01*
X133288584Y-106072138D01*
X133373694Y-106049333D01*
X133476306Y-105990090D01*
X133560090Y-105906306D01*
X133619333Y-105803694D01*
X133642138Y-105718584D01*
X134314925Y-106391371D01*
X134373599Y-106307580D01*
X134473429Y-106093492D01*
X134473433Y-106093483D01*
X134534567Y-105865326D01*
X134534569Y-105865315D01*
X134555157Y-105630001D01*
X134555157Y-105629998D01*
X134534569Y-105394684D01*
X134534567Y-105394673D01*
X134473433Y-105166516D01*
X134473429Y-105166507D01*
X134373601Y-104952424D01*
X134314925Y-104868626D01*
X133642137Y-105541414D01*
X133619333Y-105456306D01*
X133560090Y-105353694D01*
X133476306Y-105269910D01*
X133373694Y-105210667D01*
X133288584Y-105187861D01*
X133961372Y-104515073D01*
X133877576Y-104456398D01*
X133663492Y-104356570D01*
X133663483Y-104356566D01*
X133435326Y-104295432D01*
X133435315Y-104295430D01*
X133200002Y-104274843D01*
X133199998Y-104274843D01*
X132964684Y-104295430D01*
X132964673Y-104295432D01*
X132736516Y-104356566D01*
X132736507Y-104356570D01*
X132522423Y-104456399D01*
X132522421Y-104456400D01*
X132438627Y-104515073D01*
X132438626Y-104515073D01*
X133111415Y-105187861D01*
X133026306Y-105210667D01*
X132923694Y-105269910D01*
X132839910Y-105353694D01*
X132780667Y-105456306D01*
X132757861Y-105541414D01*
X132085073Y-104868626D01*
X132085073Y-104868627D01*
X132026400Y-104952421D01*
X132026399Y-104952423D01*
X131926570Y-105166507D01*
X131926566Y-105166516D01*
X131865432Y-105394673D01*
X131865430Y-105394684D01*
X131844843Y-105629998D01*
X131844843Y-105630001D01*
X131865430Y-105865315D01*
X131865432Y-105865326D01*
X131926566Y-106093483D01*
X131926570Y-106093492D01*
X132026398Y-106307576D01*
X132085073Y-106391372D01*
X132757861Y-105718584D01*
X132780667Y-105803694D01*
X132839910Y-105906306D01*
X132923694Y-105990090D01*
X133026306Y-106049333D01*
X133111415Y-106072138D01*
X132438627Y-106744925D01*
X132514595Y-106798119D01*
X132558219Y-106852696D01*
X132565412Y-106922195D01*
X132533890Y-106984549D01*
X132514595Y-107001269D01*
X132328594Y-107131508D01*
X132161505Y-107298597D01*
X132025965Y-107492169D01*
X132025964Y-107492171D01*
X131926098Y-107706335D01*
X131926094Y-107706344D01*
X131864938Y-107934586D01*
X131864936Y-107934596D01*
X131844341Y-108169999D01*
X119486340Y-108169999D01*
X119486713Y-104632135D01*
X122879500Y-104632135D01*
X122879500Y-107127870D01*
X122879501Y-107127876D01*
X122885908Y-107187483D01*
X122936202Y-107322328D01*
X122936206Y-107322335D01*
X123022452Y-107437544D01*
X123022455Y-107437547D01*
X123137664Y-107523793D01*
X123137671Y-107523797D01*
X123272517Y-107574091D01*
X123272516Y-107574091D01*
X123279444Y-107574835D01*
X123332127Y-107580500D01*
X125827872Y-107580499D01*
X125887483Y-107574091D01*
X126022331Y-107523796D01*
X126137546Y-107437546D01*
X126223796Y-107322331D01*
X126274091Y-107187483D01*
X126280500Y-107127873D01*
X126280499Y-104632128D01*
X126274091Y-104572517D01*
X126230781Y-104456398D01*
X126223797Y-104437671D01*
X126223793Y-104437664D01*
X126137547Y-104322455D01*
X126137544Y-104322452D01*
X126022335Y-104236206D01*
X126022328Y-104236202D01*
X125887482Y-104185908D01*
X125887483Y-104185908D01*
X125827883Y-104179501D01*
X125827881Y-104179500D01*
X125827873Y-104179500D01*
X125827864Y-104179500D01*
X123332129Y-104179500D01*
X123332123Y-104179501D01*
X123272516Y-104185908D01*
X123137671Y-104236202D01*
X123137664Y-104236206D01*
X123022455Y-104322452D01*
X123022452Y-104322455D01*
X122936206Y-104437664D01*
X122936202Y-104437671D01*
X122885908Y-104572517D01*
X122879501Y-104632116D01*
X122879501Y-104632123D01*
X122879500Y-104632135D01*
X119486713Y-104632135D01*
X119487492Y-97231999D01*
X125928357Y-97231999D01*
X125928357Y-97232000D01*
X125948884Y-97453535D01*
X125948885Y-97453537D01*
X126009769Y-97667523D01*
X126009775Y-97667538D01*
X126108938Y-97866683D01*
X126108943Y-97866691D01*
X126243020Y-98044238D01*
X126407437Y-98194123D01*
X126407439Y-98194125D01*
X126596595Y-98311245D01*
X126596596Y-98311245D01*
X126596599Y-98311247D01*
X126804060Y-98391618D01*
X127022757Y-98432500D01*
X127022759Y-98432500D01*
X127245241Y-98432500D01*
X127245243Y-98432500D01*
X127463940Y-98391618D01*
X127671401Y-98311247D01*
X127860562Y-98194124D01*
X128024981Y-98044236D01*
X128159058Y-97866689D01*
X128258229Y-97667528D01*
X128319115Y-97453536D01*
X128339643Y-97232000D01*
X128319115Y-97010464D01*
X128258229Y-96796472D01*
X128258224Y-96796461D01*
X128159061Y-96597316D01*
X128159056Y-96597308D01*
X128024979Y-96419761D01*
X127860562Y-96269876D01*
X127860560Y-96269874D01*
X127671404Y-96152754D01*
X127671398Y-96152752D01*
X127463940Y-96072382D01*
X127245243Y-96031500D01*
X127022757Y-96031500D01*
X126804060Y-96072382D01*
X126672864Y-96123207D01*
X126596601Y-96152752D01*
X126596595Y-96152754D01*
X126407439Y-96269874D01*
X126407437Y-96269876D01*
X126243020Y-96419761D01*
X126108943Y-96597308D01*
X126108938Y-96597316D01*
X126009775Y-96796461D01*
X126009769Y-96796476D01*
X125948885Y-97010462D01*
X125948884Y-97010464D01*
X125928357Y-97231999D01*
X119487492Y-97231999D01*
X119488108Y-91380880D01*
X126480671Y-91380880D01*
X126596823Y-91452798D01*
X126596824Y-91452799D01*
X126804195Y-91533134D01*
X127022807Y-91574000D01*
X127245193Y-91574000D01*
X127463804Y-91533134D01*
X127671177Y-91452798D01*
X127671178Y-91452797D01*
X127787327Y-91380880D01*
X127134001Y-90727554D01*
X127134000Y-90727554D01*
X126480671Y-91380880D01*
X119488108Y-91380880D01*
X119488214Y-90373999D01*
X125928859Y-90373999D01*
X125928859Y-90374000D01*
X125949378Y-90595439D01*
X126010240Y-90809350D01*
X126109364Y-91008419D01*
X126109366Y-91008421D01*
X126125138Y-91029306D01*
X126780446Y-90374000D01*
X126780446Y-90373999D01*
X126734369Y-90327922D01*
X126784000Y-90327922D01*
X126784000Y-90420078D01*
X126807852Y-90509095D01*
X126853930Y-90588905D01*
X126919095Y-90654070D01*
X126998905Y-90700148D01*
X127087922Y-90724000D01*
X127180078Y-90724000D01*
X127269095Y-90700148D01*
X127348905Y-90654070D01*
X127414070Y-90588905D01*
X127460148Y-90509095D01*
X127484000Y-90420078D01*
X127484000Y-90373999D01*
X127487554Y-90373999D01*
X127487554Y-90374000D01*
X128142860Y-91029306D01*
X128142861Y-91029306D01*
X128158631Y-91008425D01*
X128158632Y-91008422D01*
X128257759Y-90809350D01*
X128318621Y-90595439D01*
X128339141Y-90374000D01*
X128339141Y-90373999D01*
X128318621Y-90152560D01*
X128257759Y-89938649D01*
X128158633Y-89739577D01*
X128158631Y-89739574D01*
X128142860Y-89718691D01*
X127487554Y-90373999D01*
X127484000Y-90373999D01*
X127484000Y-90327922D01*
X127460148Y-90238905D01*
X127414070Y-90159095D01*
X127348905Y-90093930D01*
X127269095Y-90047852D01*
X127180078Y-90024000D01*
X127087922Y-90024000D01*
X126998905Y-90047852D01*
X126919095Y-90093930D01*
X126853930Y-90159095D01*
X126807852Y-90238905D01*
X126784000Y-90327922D01*
X126734369Y-90327922D01*
X126125138Y-89718691D01*
X126125137Y-89718691D01*
X126109369Y-89739571D01*
X126010240Y-89938649D01*
X125949378Y-90152560D01*
X125928859Y-90373999D01*
X119488214Y-90373999D01*
X119488320Y-89367118D01*
X126480671Y-89367118D01*
X127134000Y-90020446D01*
X127134001Y-90020446D01*
X127787327Y-89367118D01*
X127787326Y-89367117D01*
X127671181Y-89295203D01*
X127671175Y-89295200D01*
X127463804Y-89214865D01*
X127245193Y-89174000D01*
X127022807Y-89174000D01*
X126804195Y-89214865D01*
X126596824Y-89295200D01*
X126596818Y-89295204D01*
X126480672Y-89367117D01*
X126480671Y-89367118D01*
X119488320Y-89367118D01*
X119489545Y-77724000D01*
X127254000Y-77724000D01*
X127254000Y-75438000D01*
X119489785Y-75438000D01*
X119489826Y-75051486D01*
X119509518Y-74984450D01*
X119562326Y-74938700D01*
X119613826Y-74927500D01*
X127129990Y-74927500D01*
X127130000Y-74927500D01*
X127237456Y-74915947D01*
X127288967Y-74904741D01*
X127323197Y-74893347D01*
X127391497Y-74870616D01*
X127391501Y-74870613D01*
X127391504Y-74870613D01*
X127512543Y-74792825D01*
X127565347Y-74747070D01*
X127659567Y-74638336D01*
X127719338Y-74507459D01*
X127739023Y-74440420D01*
X127739024Y-74440416D01*
X127759500Y-74298000D01*
X127759500Y-72260000D01*
X127747947Y-72152544D01*
X127736741Y-72101033D01*
X127722489Y-72058213D01*
X127702616Y-71998502D01*
X127702613Y-71998496D01*
X127666944Y-71942995D01*
X127624825Y-71877457D01*
X127624820Y-71877451D01*
X127579076Y-71824659D01*
X127579072Y-71824656D01*
X127579070Y-71824653D01*
X127470336Y-71730433D01*
X127470333Y-71730431D01*
X127470331Y-71730430D01*
X127339465Y-71670664D01*
X127339460Y-71670662D01*
X127339459Y-71670662D01*
X127272420Y-71650977D01*
X127272422Y-71650977D01*
X127272417Y-71650976D01*
X127210305Y-71642046D01*
X127130000Y-71630500D01*
X119614199Y-71630500D01*
X119547160Y-71610815D01*
X119501405Y-71558011D01*
X119490199Y-71506487D01*
X119490259Y-70928089D01*
X119490433Y-69272635D01*
X119510125Y-69205602D01*
X119562933Y-69159852D01*
X119614061Y-69148653D01*
X129120356Y-69120500D01*
X129120679Y-69120500D01*
X129185350Y-69120571D01*
X129185350Y-69120570D01*
X129185383Y-69120571D01*
X129186260Y-69120453D01*
X129186755Y-69120387D01*
X129187346Y-69120309D01*
X129187368Y-69120303D01*
X129187374Y-69120303D01*
X129250032Y-69103314D01*
X129291734Y-69092188D01*
X129323693Y-69088000D01*
X135575500Y-69088000D01*
X135642539Y-69107685D01*
G37*
G04 #@! TD.AperFunction*
M02*
