M48
; DRILL file {KiCad 8.0.9-8.0.9-0~ubuntu22.04.1} date 2025-09-14T16:49:06-0400
; FORMAT={-:-/ absolute / metric / decimal}
; #@! TF.CreationDate,2025-09-14T16:49:06-04:00
; #@! TF.GenerationSoftware,Kicad,Pcbnew,8.0.9-8.0.9-0~ubuntu22.04.1
; #@! TF.FileFunction,Plated,1,2,PTH
FMAT,2
METRIC
; #@! TA.AperFunction,Plated,PTH,ViaDrill
T1C0.300
; #@! TA.AperFunction,Plated,PTH,ComponentDrill
T2C0.700
; #@! TA.AperFunction,Plated,PTH,ComponentDrill
T3C0.800
; #@! TA.AperFunction,Plated,PTH,ComponentDrill
T4C0.900
; #@! TA.AperFunction,Plated,PTH,ComponentDrill
T5C1.100
; #@! TA.AperFunction,Plated,PTH,ComponentDrill
T6C1.200
%
G90
G05
T1
X126.6Y-73.18
X136.7Y-74.68
X140.83Y-71.18
X147.7Y-111.69
X148.57Y-73.58
X158.495Y-75.455
T2
X127.134Y-90.374
X127.134Y-97.232
X150.73Y-73.34
X150.73Y-80.96
X157.868Y-90.374
X157.868Y-97.232
X158.7Y-106.07
X158.7Y-113.69
T3
X154.57Y-74.64
X154.57Y-77.18
X154.57Y-79.72
X162.19Y-74.64
X162.19Y-77.18
X162.19Y-79.72
T4
X133.2Y-105.63
X133.2Y-108.17
X133.2Y-110.71
X133.2Y-113.25
X133.2Y-115.79
X133.2Y-118.33
X133.2Y-120.87
X133.2Y-123.41
X133.2Y-125.95
X136.15Y-105.93
X138.69Y-105.93
X141.23Y-105.93
X143.77Y-105.93
X146.31Y-105.93
X148.85Y-105.93
X151.8Y-105.63
X151.8Y-108.17
X151.8Y-110.71
X151.8Y-113.25
X151.8Y-115.79
X151.8Y-118.33
X151.8Y-120.87
X151.8Y-123.41
X151.8Y-125.95
T5
X144.82Y-74.53
X144.82Y-77.07
X144.82Y-79.61
T6
X124.58Y-105.88
X124.58Y-123.88
M30
